<?xml version="1.0" encoding="UTF-8" standalone="no"?>
<!-- Created with Inkscape (http://www.inkscape.org/) -->

<svg
   width="256"
   height="256"
   viewBox="0 0 67.733332 67.733333"
   version="1.1"
   id="svg1"
   inkscape:version="1.4 (e7c3feb, 2024-10-09)"
   xml:space="preserve"
   sodipodi:docname="abwizard_icon.svg"
   inkscape:export-filename="abwizard_icon.png"
   inkscape:export-xdpi="96"
   inkscape:export-ydpi="96"
   xmlns:inkscape="http://www.inkscape.org/namespaces/inkscape"
   xmlns:sodipodi="http://sodipodi.sourceforge.net/DTD/sodipodi-0.dtd"
   xmlns="http://www.w3.org/2000/svg"
   xmlns:svg="http://www.w3.org/2000/svg"><sodipodi:namedview
     id="namedview1"
     pagecolor="#ffffff"
     bordercolor="#eeeeee"
     borderopacity="1"
     inkscape:showpageshadow="true"
     inkscape:pageopacity="0"
     inkscape:pagecheckerboard="0"
     inkscape:deskcolor="#ffffff"
     inkscape:document-units="mm"
     inkscape:zoom="1.9598765"
     inkscape:cx="106.12913"
     inkscape:cy="182.15433"
     inkscape:window-width="1247"
     inkscape:window-height="755"
     inkscape:window-x="2039"
     inkscape:window-y="339"
     inkscape:window-maximized="0"
     inkscape:current-layer="layer1" /><defs
     id="defs1"><filter
       id="filter6025"
       style="color-interpolation-filters:sRGB"
       x="0"
       y="0"
       width="1"
       height="1"><feColorMatrix
         id="feColorMatrix6027"
         values="1 0 0 0 0 0 1 0 0 0 0 0 1 0 0 0 0 0 1000 -500 " /></filter><inkscape:perspective
       sodipodi:type="inkscape:persp3d"
       inkscape:vp_x="0 : 296.9144 : 1"
       inkscape:vp_y="0 : 999.99997 : 0"
       inkscape:vp_z="744.09448 : 296.9144 : 1"
       inkscape:persp3d-origin="372.04724 : 121.52071 : 1"
       id="perspective10" /><filter
       id="filter3668"
       inkscape:label="Drop shadow"
       width="1.5"
       height="1.5"
       x="-0.25"
       y="-0.25"><feGaussianBlur
         id="feGaussianBlur3670"
         in="SourceAlpha"
         stdDeviation="1,000000"
         result="blur" /><feColorMatrix
         id="feColorMatrix3672"
         result="bluralpha"
         type="matrix"
         values="1 0 0 0 0 0 1 0 0 0 0 0 1 0 0 0 0 0 0,500000 0 " /><feOffset
         id="feOffset3674"
         in="bluralpha"
         dx="1,000000"
         dy="1,000000"
         result="offsetBlur" /><feMerge
         id="feMerge3676"><feMergeNode
           id="feMergeNode3678"
           in="offsetBlur" /><feMergeNode
           id="feMergeNode3680"
           in="SourceGraphic" /></feMerge></filter></defs><g
     inkscape:label="Layer 1"
     inkscape:groupmode="layer"
     id="layer1"><g
       id="g5750"
       filter="url(#filter6025)"
       inkscape:label="VisibleSpectralLines.svg"
       transform="matrix(0.05644444,0,0,0.05644444,5.3333333e-6,56.444445)"><path
         id="path4"
         fill="#010102"
         d="m 0,0 h 8.01 c -0.6,63.65 1.14,127.4 -0.83,190.98 4.47,-0.5 8.98,-0.69 13.44,0.06 0.31,0.17 0.95,0.51 1.27,0.68 -0.7,2.75 -0.41,5.56 0.3,8.28 H 8.08 C 7.94,198.31 6.1,197.74 4.71,198.27 L 3.9,198.25 C 3.66,196.67 1.57,196.08 0.89,197.73 L 0,198.08 Z" /><path
         id="path6"
         d="m 8.01,0 h 12.05 c 0.32,63.66 -0.91,127.43 0.56,191.04 -4.46,-0.75 -8.97,-0.56 -13.44,-0.06 C 9.15,127.4 7.41,63.65 8.01,0 Z" /><path
         id="path8"
         fill="#000003"
         d="m 20.06,0 h 4.01 c 0.48,66.66 -1.34,133.38 0.96,200 h -0.94 c -0.31,-2.89 -0.05,-6.07 -2.2,-8.28 -0.32,-0.17 -0.96,-0.51 -1.27,-0.68 C 19.15,127.43 20.38,63.66 20.06,0 Z" /><path
         id="path10"
         fill="#010006"
         d="m 24.07,0 h 9.85 c 7.06,60.75 1.07,122.56 3.15,183.74 4.51,11.98 -13.12,4.27 -8.13,16.26 H 25.03 C 22.73,133.38 24.55,66.66 24.07,0 Z" /><path
         id="path12"
         fill="#01000d"
         d="m 33.92,0 h 19.07 c 3.5,6.65 -4.79,20.2 -8.49,9.73 4.02,-11.55 -7.81,-4.62 -3.43,1.68 -0.15,57.09 0.02,115.65 -0.13,173.38 -2.95,7.82 7.84,7.48 4.31,15.21 H 28.94 C 23.95,188.01 41.58,195.72 37.07,183.74 34.99,122.56 40.98,60.75 33.92,0 Z" /><path
         id="path14"
         fill="#010011"
         d="m 52.99,0 h 3.03 c -2.23,61.76 -2.76,123.62 -1.6,185.49 2.77,6.64 -10.11,7.17 -6.46,14.51 h -2.71 c 3.53,-7.73 -7.26,-7.39 -4.31,-15.21 C 41.09,127.06 40.92,68.5 41.07,11.41 36.69,5.11 48.52,-1.82 44.5,9.73 48.2,20.2 56.49,6.65 52.99,0 Z" /><path
         id="path16"
         fill="#000116"
         d="m 56.02,0 h 3.04 c -1.26,11.68 5.73,23.97 0.52,35.04 -1.37,50.89 -0.22,101.91 -0.51,152.85 -2.03,4.15 -6.45,7.06 -6.46,12.11 h -4.65 c -3.65,-7.34 9.23,-7.87 6.46,-14.51 C 53.26,123.62 53.79,61.76 56.02,0 Z" /><path
         id="path18"
         fill="#00001c"
         d="m 59.06,0 h 2.99 c 1.71,62.21 1.36,124.54 0.02,186.74 0.29,5.06 -4.05,8.7 -5.6,13.26 h -3.86 c 0.01,-5.05 4.43,-7.96 6.46,-12.11 C 59.36,136.95 58.21,85.93 59.58,35.04 64.79,23.97 57.8,11.68 59.06,0 Z" /><path
         id="path20"
         fill="#000020"
         d="m 62.05,0 h 3.92 c -4.32,65.57 3.55,133.97 -4.28,200 h -5.22 c 1.55,-4.56 5.89,-8.2 5.6,-13.26 C 63.41,124.54 63.76,62.21 62.05,0 Z" /><path
         id="path22"
         fill="#020126"
         d="m 65.97,0 h 1.87 c -3.96,39.23 0.77,79.3 -0.85,119.03 1.92,27.07 -4.16,53.96 -1,80.97 h -4.3 C 69.52,133.97 61.65,65.57 65.97,0 Z" /><path
         id="path24"
         fill="#02012d"
         d="m 67.84,0 h 1.87 c 0.04,6.42 0.71,12.8 4.88,17.93 0.97,57.17 0.4,114.46 -0.31,171.58 1.39,3.89 6.7,5.59 6,10.49 H 74.21 C 69.37,143.82 76.18,86.46 71.95,30.05 72.76,26.63 68.31,15.97 67.46,24.51 70.07,82.9 65.13,141.88 69.1,200 h -3.11 c -3.16,-27.01 2.92,-53.9 1,-80.97 C 68.61,79.3 63.88,39.23 67.84,0 Z" /><path
         id="path26"
         fill="#000026"
         d="m 69.71,0 h 9.25 c -3.77,62.79 -0.64,125.78 -3,188.6 -0.93,3.84 4.13,5.1 7,4.17 C 89.58,130.08 74.06,61.94 92.44,0 h 2.82 C 92.95,13.36 88.8,26.42 86.04,39.43 86.66,92.83 84.56,147.02 87.1,200 h -6.82 c 0.7,-4.9 -4.61,-6.6 -6,-10.49 C 74.99,132.39 75.56,75.1 74.59,17.93 70.42,12.8 69.75,6.42 69.71,0 Z" /><path
         id="path28"
         fill="#000020"
         d="m 78.96,0 h 13.48 c -18.38,61.94 -2.86,130.08 -9.48,192.77 -2.87,0.93 -7.93,-0.33 -7,-4.17 2.36,-62.82 -0.77,-125.81 3,-188.6 m 2.55,31.04 c -4.56,0.8 -3.46,6.89 -3.59,10.05 0.26,47.91 0.29,95.81 -0.98,143.66 -4.42,6.15 6.97,9.32 6.15,3.06 C 81.85,136.02 85.1,80.69 81.51,31.04 Z" /><path
         id="path30"
         fill="#00002a"
         d="m 95.26,0 h 5.71 c 3.64,61.81 -1.07,124.58 2.11,186.71 2.44,7.61 -14.45,6.75 -10.32,-0.97 1.8,-48.71 1.1,-97.45 1.29,-146.19 0.54,-7.3 7.2,-18.37 -0.02,-23.66 -4.08,6.39 -1.87,14.8 -6.7,20.96 0.81,54.23 -3.26,109.71 2.51,163.15 H 87.1 C 84.56,147.02 86.66,92.83 86.04,39.43 88.8,26.42 92.95,13.36 95.26,0 Z" /><path
         id="path32"
         fill="#01002e"
         d="m 100.97,0 h 2.93 c 1.26,57.13 -1.64,114.49 1.47,171.5 -1.71,5.66 5.01,23.55 -6.55,21.93 -4.35,-1.57 -4.01,3.84 -5.22,6.57 H 89.84 C 84.07,146.56 88.14,91.08 87.33,36.85 c 4.83,-6.16 2.62,-14.57 6.7,-20.96 7.22,5.29 0.56,16.36 0.02,23.66 -0.19,48.74 0.51,97.48 -1.29,146.19 -4.13,7.72 12.76,8.58 10.32,0.97 C 99.9,124.58 104.61,61.81 100.97,0 Z" /><path
         id="path34"
         fill="#000034"
         d="m 103.9,0 h 6.08 c 1.24,61.61 1.7,125.39 0,187.76 -1.47,3.86 5.6,5.02 4.62,0.66 C 115.86,125.63 114.25,62.78 115.02,0 h 1.01 c -0.24,63.66 0.32,127.34 -0.26,190.99 -3.42,2.4 -8.58,3.93 -6.75,9.01 H 93.6 c 1.21,-2.73 0.87,-8.14 5.22,-6.57 11.56,1.62 4.84,-16.27 6.55,-21.93 C 102.26,114.49 105.16,57.13 103.9,0 Z" /><path
         id="path36"
         fill="#00012f"
         d="m 109.98,0 h 5.04 c -0.77,62.78 0.84,125.63 -0.42,188.42 0.98,4.36 -6.09,3.2 -4.62,-0.66 1.7,-62.37 1.24,-126.15 0,-187.76 z" /><path
         id="path38"
         fill="#00003f"
         d="m 116.03,0 h 2.01 c -0.02,4.94 -0.03,9.88 -0.19,14.82 -3.71,61.54 2.92,123.97 -2.88,185.18 h -5.95 c -1.83,-5.08 3.33,-6.61 6.75,-9.01 0.58,-63.65 0.02,-127.33 0.26,-190.99 z" /><path
         id="path40"
         fill="#020050"
         d="m 118.04,0 h 1.97 c -1.47,66.61 -1.86,133.41 -0.07,200 h -0.99 c -2.3,-61.67 -0.14,-123.46 -1.1,-185.18 0.16,-4.94 0.17,-9.88 0.19,-14.82 z" /><path
         id="path42"
         fill="#030258"
         d="m 120.01,0 h 3.93 c 4.06,66.53 -2.89,133.8 3.25,200 h -7.25 c -1.79,-66.59 -1.4,-133.39 0.07,-200 m 2.16,6.67 c -5.2,59.04 -0.58,119.45 -2.23,178.98 -2.95,2.52 3.81,11.73 4.06,5.05 -1.26,-61.21 2.5,-123.31 -1.83,-184.03 z" /><path
         id="path44"
         fill="#010151"
         d="m 123.94,0 h 0.97 c 3.21,63.54 -1.01,127.57 2.11,190.93 1.06,2.93 1.9,5.94 2.06,9.07 h -1.89 C 121.05,133.8 128,66.53 123.94,0 Z" /><path
         id="path46"
         fill="#000148"
         d="m 124.91,0 h 1.96 c 2.32,63.55 0.73,127.21 0.99,190.8 l -0.84,0.13 C 123.9,127.57 128.12,63.54 124.91,0 Z" /><path
         id="path48"
         fill="#000140"
         d="m 126.87,0 h 8.09 c 1.02,63.1 -1.24,126.3 0.91,189.38 -0.5,3.87 -4.37,3.71 -7.23,2.76 -0.2,-0.34 -0.59,-1 -0.78,-1.34 C 127.6,127.21 129.19,63.55 126.87,0 m 3.23,28.92 c -2.67,53.18 -0.44,107.14 -0.93,160.6 0.49,3.43 5.07,0.67 4.62,-1.67 -1.89,-51.62 -0.02,-103.47 -1.02,-155.16 -0.74,-1.12 -0.94,-4.62 -2.67,-3.77 z" /><path
         id="path50"
         fill="#000046"
         d="m 134.96,0 h 2.02 c 0.38,64.85 -0.69,129.79 0.59,194.59 -3.12,3.35 -6.8,0.24 -8.93,-2.45 2.86,0.95 6.73,1.11 7.23,-2.76 C 133.72,126.3 135.98,63.1 134.96,0 Z" /><path
         id="path52"
         fill="#00004b"
         d="m 136.98,0 h 11.13 c 1.84,12.03 -4.69,26.08 2.6,36.88 0.18,51.12 1.12,102.35 -0.47,153.44 1.34,-0.11 4.04,-0.32 5.39,-0.43 C 154.61,126.62 154.3,63.26 156.33,0 h 17.09 c -3.89,6.53 -17.08,3.2 -15.37,13.3 4.86,5.18 8.21,9.84 0.55,13.84 -1.65,53.78 0.22,108.33 -0.86,162.34 -5.13,3.72 -10.87,7.29 -15.53,10.52 h -13.13 c -0.16,-3.13 -1,-6.14 -2.06,-9.07 l 0.84,-0.13 c 0.19,0.34 0.58,1 0.78,1.34 2.13,2.69 5.81,5.8 8.93,2.45 C 136.29,129.79 137.36,64.85 136.98,0 m 3.92,1.58 c -1.56,62.52 -0.7,126.01 -0.85,188.94 0.61,2.74 5.34,2.17 4.99,-0.78 -0.61,-58.44 1.26,-117.02 -1.42,-175.36 -0.49,-4.35 2.96,-11.11 -2.72,-12.8 z" /><path
         id="path54"
         fill="#000049"
         d="m 148.11,0 h 8.22 c -2.03,63.26 -1.72,126.62 -0.7,189.89 -1.35,0.11 -4.05,0.32 -5.39,0.43 C 151.83,139.23 150.89,88 150.71,36.88 143.42,26.08 149.95,12.03 148.11,0 Z" /><path
         id="path56"
         fill="#00004e"
         d="m 173.42,0 h 3.83 c -4.51,4.58 -11.27,6.24 -15.6,10.88 -3.13,6.17 8.44,6.38 8.21,11.87 -2.9,3.3 -11.49,5.09 -7.56,10.73 -0.5,51.32 -0.4,102.82 -0.14,154.17 2.73,6.44 20.78,2.02 16.01,12.35 h -35.96 c 4.66,-3.23 10.4,-6.8 15.53,-10.52 1.08,-54.01 -0.79,-108.56 0.86,-162.34 7.66,-4 4.31,-8.66 -0.55,-13.84 C 156.34,3.2 169.53,6.53 173.42,0 Z" /><path
         id="path58"
         fill="#000153"
         d="m 177.25,0 h 3.69 c -4.1,3.97 -9.51,6.59 -13.45,10.62 -1.66,6.97 10.28,6.67 11.41,12.21 -1.79,3.36 -6.08,4.66 -9.03,6.95 5.72,5.22 1.17,13.56 2.13,20.17 0.22,46.12 -0.44,92.29 0.29,138.38 4.48,3.52 13.77,3.21 10.6,11.67 h -4.72 c 4.77,-10.33 -13.28,-5.91 -16.01,-12.35 C 161.9,136.3 161.8,84.8 162.3,33.48 c -3.93,-5.64 4.66,-7.43 7.56,-10.73 0.23,-5.49 -11.34,-5.7 -8.21,-11.87 4.33,-4.64 11.09,-6.3 15.6,-10.88 z" /><path
         id="path60"
         fill="#000056"
         d="m 180.94,0 h 4.68 c -4.56,3.37 -9.52,6.29 -13.46,10.41 -0.43,6.49 13.5,7.79 8.68,15.18 -5.04,4.67 0.36,10.82 -0.79,16.55 -0.02,48.77 -0.16,97.56 0.01,146.32 4.78,3.34 10.46,5.57 5.6,11.54 h -2.77 c 3.17,-8.46 -6.12,-8.15 -10.6,-11.67 -0.73,-46.09 -0.07,-92.26 -0.29,-138.38 -0.96,-6.61 3.59,-14.95 -2.13,-20.17 2.95,-2.29 7.24,-3.59 9.03,-6.95 -1.13,-5.54 -13.07,-5.24 -11.41,-12.21 3.94,-4.03 9.35,-6.65 13.45,-10.62 z" /><path
         id="path62"
         fill="#01015a"
         d="m 185.62,0 h 15.46 c -8.05,5.16 -21.36,0.27 -25.98,11.1 1.87,10.22 14.3,7.02 19.87,12.07 -5.34,0.56 -14.88,10.5 -4.55,10.32 0.02,52.62 -1.97,105.52 0.79,158.01 5.67,-0.62 19.9,1.6 16.69,8.5 h -22.24 c 4.86,-5.97 -0.82,-8.2 -5.6,-11.54 -0.17,-48.76 -0.03,-97.55 -0.01,-146.32 1.15,-5.73 -4.25,-11.88 0.79,-16.55 4.82,-7.39 -9.11,-8.69 -8.68,-15.18 3.94,-4.12 8.9,-7.04 13.46,-10.41 z" /><path
         id="path64"
         fill="#00005e"
         d="m 201.08,0 h 7.05 c -8.38,7.88 -20.45,2.87 -29.18,9.39 0.79,10.7 18.51,5.1 23.07,13.5 -4.02,2.98 -11.63,5.46 -7.55,11.4 -1.15,50.72 0.04,101.59 -0.68,152.37 3.48,7.27 20.67,3.26 19.1,13.34 h -4.99 c 3.21,-6.9 -11.02,-9.12 -16.69,-8.5 -2.76,-52.49 -0.77,-105.39 -0.79,-158.01 -10.33,0.18 -0.79,-9.76 4.55,-10.32 C 189.4,18.12 176.97,21.32 175.1,11.1 179.72,0.27 193.03,5.16 201.08,0 Z" /><path
         id="path66"
         fill="#000062"
         d="m 208.13,0 h 3.9 c -7.24,8.33 -21.66,4.74 -28.18,10.99 5.78,4.05 28.9,4.97 18.18,17.95 0.41,51.85 -0.5,105.78 0.12,158.31 4.61,10.85 25.06,1.14 25.3,12.75 h -14.56 c 1.57,-10.08 -15.62,-6.07 -19.1,-13.34 0.72,-50.78 -0.47,-101.65 0.68,-152.37 -4.08,-5.94 3.53,-8.42 7.55,-11.4 -4.56,-8.4 -22.28,-2.8 -23.07,-13.5 8.73,-6.52 20.8,-1.51 29.18,-9.39 z" /><path
         id="path68"
         fill="#000065"
         d="m 212.03,0 h 5.78 c -4.65,5.03 -13.3,5.03 -16.76,11.08 2.03,4.13 8,6.25 9.84,11.03 -1.03,3.35 -4.28,6.08 -3.56,9.88 1.54,52.48 0.26,105.04 0.62,157.55 7.37,5.05 23,-2.79 21.45,10.46 h -1.95 c -0.24,-11.61 -20.69,-1.9 -25.3,-12.75 C 201.53,134.72 202.44,80.79 202.03,28.94 212.75,15.96 189.63,15.04 183.85,10.99 190.37,4.74 204.79,8.33 212.03,0 Z" /><path
         id="path70"
         fill="#00016b"
         d="m 217.81,0 h 4.64 c -3.23,6.84 -13.19,5.16 -17.71,10.97 3.8,5.05 9.94,7.41 14.28,11.83 -4.41,3.14 -11.21,8.2 -3.66,11.74 -3.13,48.94 -0.44,99.63 -1.43,149.21 -0.65,6.61 10.44,9.49 14.47,4.79 3.7,0.62 1.22,8.46 2.95,11.46 h -1.95 c 1.55,-13.25 -14.08,-5.41 -21.45,-10.46 -0.36,-52.51 0.92,-105.07 -0.62,-157.55 -0.72,-3.8 2.53,-6.53 3.56,-9.88 -1.84,-4.78 -7.81,-6.9 -9.84,-11.03 C 204.51,5.03 213.16,5.03 217.81,0 Z" /><path
         id="path72"
         fill="#00016e"
         d="m 222.45,0 h 0.89 c 0.43,7 -8.43,5.52 -12.3,9.4 -2.58,9.04 17.16,7.51 10.39,15.83 -4.98,3.03 -5.89,8.65 2.2,7.95 -1.45,51.25 -0.18,102.55 -0.7,153.82 -1.47,4.22 8.46,1.49 3.15,-2.98 2.41,-54.66 -0.38,-109.93 1.36,-164.33 -3.77,-4.35 -3.19,-18.22 3.94,-14.52 0.48,3.92 0.38,7.89 0.47,11.83 -0.06,52.59 0.59,105.27 -0.11,157.89 -0.53,7.54 -2.37,21.78 6.77,25.11 h -7.16 c -1.73,-3 0.75,-10.84 -2.95,-11.46 -4.03,4.7 -15.12,1.82 -14.47,-4.79 0.99,-49.58 -1.7,-100.27 1.43,-149.21 C 207.81,31 214.61,25.94 219.02,22.8 214.68,18.38 208.54,16.02 204.74,10.97 209.26,5.16 219.22,6.84 222.45,0 Z" /><path
         id="path74"
         fill="#000071"
         d="m 223.34,0 h 6.6 c 0.62,1.68 1.28,3.37 1.44,5.17 -7.13,-3.7 -7.71,10.17 -3.94,14.52 -1.74,54.4 1.05,109.67 -1.36,164.33 5.31,4.47 -4.62,7.2 -3.15,2.98 0.52,-51.27 -0.75,-102.57 0.7,-153.82 -8.09,0.7 -7.18,-4.92 -2.2,-7.95 C 228.2,16.91 208.46,18.44 211.04,9.4 214.91,5.52 223.77,7 223.34,0 Z" /><path
         id="path76"
         fill="#000275"
         d="m 229.94,0 h 11.09 c 0.03,1.25 0.06,2.49 0.11,3.74 -7.33,1.43 -4.85,11.63 -3.05,16.96 -1.15,56.25 1.27,113.13 -0.88,169.54 -1.22,2.8 1.93,1.5 3.49,1.36 1.69,-58.54 -1.62,-117.93 1.21,-176.03 0.54,61.32 -0.54,123.71 0.37,184.43 h -3.77 c -9.14,-3.33 -7.3,-17.57 -6.77,-25.11 1.86,3.61 -2.82,18.42 4.08,16.66 0.7,-57.05 -0.51,-114.17 0.66,-171.18 C 237.43,15.24 233.44,10 231.85,17 231.76,13.06 231.86,9.09 231.38,5.17 231.22,3.37 230.56,1.68 229.94,0 Z" /><path
         id="path78"
         fill="#00017d"
         d="M 241.03,0 H 242 c 3.21,66.54 -1.35,133.5 2.16,200 h -1.88 C 241.37,139.28 242.45,76.89 241.91,15.57 241.81,11.62 241.46,7.68 241.14,3.74 241.09,2.49 241.06,1.25 241.03,0 Z" /><path
         id="path80"
         fill="#000089"
         d="m 242,0 h 2 c 0.5,64.09 -0.99,128.27 0.73,192.31 0.13,2.56 0.26,5.12 0.38,7.69 h -0.95 C 240.65,133.5 245.21,66.54 242,0 Z" /><path
         id="path82"
         fill="#010197"
         d="m 244,0 h 1.01 c -0.15,63.78 0.26,127.57 -0.19,191.34 l -0.09,0.97 C 243.01,128.27 244.5,64.09 244,0 Z" /><path
         id="path84"
         fill="#0404a5"
         d="m 245.01,0 h 1.01 c -0.24,63.25 0.36,126.51 -0.29,189.75 l -0.16,0.96 -0.75,0.63 C 245.27,127.57 244.86,63.78 245.01,0 Z" /><path
         id="path86"
         fill="#0908af"
         d="m 246.02,0 h 4.1 c -0.05,0.48 -0.14,1.44 -0.19,1.92 -1.22,4.71 -2.08,9.59 -0.98,14.41 -2.92,-2.32 -3.68,-1.15 -2.29,3.52 0.53,56.74 0.61,113.53 -0.01,170.26 l -0.92,-0.36 C 246.38,126.51 245.78,63.25 246.02,0 Z" /><path
         id="path88"
         fill="#05069b"
         d="m 250.12,0 h 1 c -0.16,63.98 -0.29,127.96 0.07,191.93 -0.26,2.72 -0.77,5.38 -1.23,8.07 h -4.85 c -0.12,-2.57 -0.25,-5.13 -0.38,-7.69 l 0.09,-0.97 0.75,-0.63 c -0.14,3.8 3.41,6.53 3.93,1.39 1.15,-63.35 0.24,-126.79 0.43,-190.18 0.05,-0.48 0.14,-1.44 0.19,-1.92 z" /><path
         id="path90"
         fill="#010390"
         d="m 251.12,0 h 1.99 c -0.5,4.88 -1.17,9.77 -0.96,14.68 -0.9,59.07 1.05,118.28 -0.96,177.25 C 250.83,127.96 250.96,63.98 251.12,0 Z" /><path
         id="path92"
         fill="#00067f"
         d="m 253.11,0 h 1.94 c -0.75,5.57 -2.56,11.22 -0.91,16.81 -0.37,61.06 0.04,122.13 -0.21,183.19 h -1.01 C 252.47,138.27 254.18,76.24 252.15,14.68 251.94,9.77 252.61,4.88 253.11,0 Z" /><path
         id="path94"
         fill="#010974"
         d="m 255.05,0 h 8.84 c 0.89,2.69 1.29,5.49 1.44,8.3 -9.1,-17.29 -15.8,17.98 -1.45,8.47 -3.75,58.45 -1.96,117.92 -0.92,176.59 -4.66,-7.53 -8.67,0.48 -7.02,6.64 h -1 C 253.92,139.12 256.9,77.17 254.14,16.81 252.49,11.22 254.3,5.57 255.05,0 Z" /><path
         id="path96"
         fill="#000d77"
         d="m 263.89,0 h 2.81 c 0.18,1.18 0.38,2.37 0.6,3.55 -3.12,57.72 0.45,117.77 -2.42,176.43 1.24,5.14 -2.12,15.47 5.2,17.35 0.03,0.67 0.1,2 0.14,2.67 h -5.93 c -0.42,-2.22 -0.9,-4.43 -1.33,-6.64 -1.04,-58.67 -2.83,-118.14 0.92,-176.59 1.28,-2.63 2.45,-5.53 1.45,-8.47 -0.15,-2.81 -0.55,-5.61 -1.44,-8.3 z" /><path
         id="path98"
         fill="#001080"
         d="m 266.7,0 h 4.1 c -1.58,50.52 -0.45,102.6 -0.87,153.85 0.43,13.13 -4,27.25 1.83,39.67 l -0.78,-0.18 c -5.7,-2.01 -3.62,-8.81 -4.1,-13.48 1.74,-52.8 1.41,-105.74 0.6,-158.52 C 269.34,15.65 274.1,7.65 267.3,3.55 267.08,2.37 266.88,1.18 266.7,0 Z" /><path
         id="path100"
         fill="#011383"
         d="m 270.8,0 h 9.69 c -4.05,9.14 -0.7,18.8 -0.9,28.29 0.9,51.76 0.12,103.56 0.5,155.33 1.4,4.95 -2.64,12.8 -8.33,9.9 -5.83,-12.42 -1.4,-26.54 -1.83,-39.67 C 270.35,102.6 269.22,50.52 270.8,0 m 3.56,14.4 c -3.13,3.94 -3.37,9.29 -1.81,13.95 -0.91,53.65 -0.82,107.45 -0.13,161.11 -0.88,4.45 4.39,2.14 5.71,-0.08 -0.42,-56.86 0.34,-113.8 -0.65,-170.61 -0.34,-1.44 -1.75,-5.39 -3.12,-4.37 z" /><path
         id="path102"
         fill="#00137a"
         d="m 280.49,0 h 2.93 c -3.38,6.17 -4.49,13.46 -1.28,19.87 1.13,54.7 1.3,110.49 0.06,165.57 4.14,7.12 -11.8,8.78 -7.29,14.56 h -4.69 c -0.04,-0.67 -0.11,-2 -0.14,-2.67 0.29,-1.34 0.6,-2.66 0.9,-3.99 l 0.78,0.18 c 5.69,2.9 9.73,-4.95 8.33,-9.9 -0.38,-51.77 0.4,-103.57 -0.5,-155.33 0.2,-9.49 -3.15,-19.15 0.9,-28.29 z" /><path
         id="path104"
         fill="#011576"
         d="m 283.42,0 h 1.85 c -3.45,6.18 -5.5,13.5 -1.46,20.04 2.68,56.73 0.38,114.58 0.92,171.72 -3.71,1.66 -7.46,3.38 -7.05,8.24 h -2.77 c -4.51,-5.78 11.43,-7.44 7.29,-14.56 1.24,-55.08 1.07,-110.87 -0.06,-165.57 -3.21,-6.41 -2.1,-13.7 1.28,-19.87 z" /><path
         id="path106"
         fill="#011672"
         d="m 285.27,0 h 13.12 c 0.46,0.47 1.37,1.41 1.83,1.88 -8.37,3.16 -13.3,11.62 -6.13,18.52 -7.18,48.33 -1.1,101.43 -3.06,151.29 3.48,9.55 0.8,20.28 -2.45,28.31 h -10.9 c -0.41,-4.86 3.34,-6.58 7.05,-8.24 C 284.19,134.62 286.49,76.77 283.81,20.04 279.77,13.5 281.82,6.18 285.27,0 Z" /><path
         id="path108"
         fill="#002171"
         d="m 298.39,0 h 23.93 c 0.57,1.04 1.13,2.08 1.67,3.14 -4.2,0.54 -8.32,1.46 -12.26,2.98 -1.56,0.27 -3.11,0.54 -4.66,0.8 C 304.83,5.17 302.53,3.51 300.22,1.88 299.76,1.41 298.85,0.47 298.39,0 Z" /><path
         id="path110"
         fill="#002874"
         d="m 322.32,0 h 6.82 c 2.82,3.7 6.82,6.09 11.04,7.92 0.3,1.6 0.17,3.22 -0.26,4.78 -5.48,2.24 -9.84,8.88 -6.77,14.64 -2.31,51.58 -1.04,103.55 -0.71,155.24 3.17,6.88 -3.86,11.05 -3.58,17.42 h -7.98 c -4.92,-8.3 7.85,-5.41 5.9,-12.78 -1.73,-48.25 -0.41,-96.6 -0.7,-144.88 -2.48,-6.07 7.19,-11.14 1.63,-16.15 -5.46,-6.16 6.05,-10.14 6.09,-15.95 -2.57,-3.19 -6.21,-5.27 -9.81,-7.1 -0.54,-1.06 -1.1,-2.1 -1.67,-3.14 z" /><path
         id="path112"
         fill="#002f70"
         d="M 329.14,0 H 350.3 C 349.27,5.07 344.11,5.9 340.18,7.92 335.96,6.09 331.96,3.7 329.14,0 Z" /><path
         id="path114"
         fill="#003176"
         d="m 350.3,0 h 0.9 c -5.4,9.62 0.45,20.25 -2.72,30.24 1.51,52.26 -0.52,104.6 1.13,156.86 -0.37,4.42 -2.02,8.59 -2.95,12.9 h -2.88 c 4.17,-7.67 -1.33,-16.07 0.63,-24.21 -1.27,-48.58 0.42,-98.21 -0.6,-146.32 5.33,-3.73 5.05,-12.11 -1.89,-13.72 -0.66,-1.02 -1.33,-2.04 -2,-3.05 0.43,-1.56 0.56,-3.18 0.26,-4.78 C 344.11,5.9 349.27,5.07 350.3,0 Z" /><path
         id="path116"
         fill="#03357a"
         d="m 351.2,0 h 0.89 c 2.38,1.13 0.08,3.31 -0.26,5.03 -4.21,64.25 3.51,130.63 -3.24,194.97 h -1.93 c 0.93,-4.31 2.58,-8.48 2.95,-12.9 C 347.96,134.84 349.99,82.5 348.48,30.24 351.65,20.25 345.8,9.62 351.2,0 Z" /><path
         id="path118"
         fill="#093e85"
         d="m 352.09,0 h 3.8 c 0.18,66.67 0.19,133.33 0,200 h -5.3 c 3.22,-64.81 0.67,-130.01 1.24,-194.97 0.34,-1.72 2.64,-3.9 0.26,-5.03 m 1.03,21.67 c -0.08,56.18 -0.16,112.94 -0.16,169.32 h 1.99 C 353.8,134.98 357.49,75.61 353.12,21.67 Z" /><path
         id="path120"
         fill="#043980"
         d="m 355.89,0 h 0.99 c 0.86,64.98 -1.12,130.07 0.98,194.98 -2.74,10.56 5.36,-3.02 4.29,5.02 h -6.26 c 0.19,-66.67 0.18,-133.33 0,-200 z" /><path
         id="path122"
         fill="#013579"
         d="m 356.88,0 h 0.99 c 1.25,8.67 -1.16,18.3 3.96,26.1 -0.2,57.22 -3.38,117.19 1.23,173.9 h -0.91 c 1.07,-8.04 -7.03,5.54 -4.29,-5.02 -2.1,-64.91 -0.12,-130 -0.98,-194.98 z" /><path
         id="path124"
         fill="#013875"
         d="m 357.87,0 h 7.33 c 4.07,62.9 -1.42,126.91 1.03,190.41 0.91,2.31 2.65,4.14 4.12,6.1 l 0.02,0.77 c -1.01,0.89 -2,1.81 -2.98,2.72 h -4.33 C 358.45,143.29 361.63,83.32 361.83,26.1 356.71,18.3 359.12,8.67 357.87,0 Z" /><path
         id="path126"
         fill="#003971"
         d="m 365.2,0 h 11.37 c -7.47,10.28 0.39,24.06 -5.06,34.88 -2.03,53.62 1.22,108.63 -1.16,161.63 -1.47,-1.96 -3.21,-3.79 -4.12,-6.1 C 363.78,126.91 369.27,62.9 365.2,0 Z" /><path
         id="path128"
         fill="#003e71"
         d="m 376.57,0 h 5.66 c -0.48,61.96 -0.2,123.93 -0.12,185.9 1.01,7.21 -8.42,6.41 -11.74,11.38 l -0.02,-0.77 c 2.38,-53 -0.87,-108.01 1.16,-161.63 5.45,-10.82 -2.41,-24.6 5.06,-34.88 z" /><path
         id="path130"
         fill="#003f76"
         d="m 382.23,0 h 1.95 c -2.84,63.36 -0.26,127.04 -1.25,190.51 -0.21,4.46 -5.27,6.42 -7.86,9.49 h -7.68 c 0.98,-0.91 1.97,-1.83 2.98,-2.72 3.32,-4.97 12.75,-4.17 11.74,-11.38 C 382.03,123.93 381.75,61.96 382.23,0 Z" /><path
         id="path132"
         fill="#00417b"
         d="m 384.18,0 h 0.98 c -0.1,4.94 -0.14,9.87 -0.33,14.8 -2.1,61.67 0.03,123.49 -1.05,185.2 h -8.71 c 2.59,-3.07 7.65,-5.03 7.86,-9.49 C 383.92,127.04 381.34,63.36 384.18,0 Z" /><path
         id="path134"
         fill="#034787"
         d="m 385.16,0 h 0.99 c -0.51,64.37 0.26,128.75 -0.38,193.12 -1.9,-59.38 -0.04,-118.89 -0.94,-178.32 0.19,-4.93 0.23,-9.86 0.33,-14.8 z" /><path
         id="path136"
         fill="#1965a8"
         d="m 386.15,0 h 2.91 c 0.29,63.88 -0.99,128.53 0.67,192.52 0.09,0.47 0.25,1.41 0.33,1.88 -0.04,1.87 -0.06,3.73 -0.08,5.6 h -4.1 c -0.03,-1.72 -0.08,-5.16 -0.11,-6.88 C 386.41,128.75 385.64,64.37 386.15,0 Z" /><path
         id="path138"
         fill="#1560a1"
         d="m 389.06,0 h 0.97 c -0.24,64.17 0.34,128.35 -0.3,192.52 C 388.07,128.53 389.35,63.88 389.06,0 Z" /><path
         id="path140"
         fill="#095492"
         d="m 390.03,0 h 0.98 c 0.06,0.71 0.18,2.14 0.24,2.86 -0.44,63 -0.37,126.02 -0.03,189.01 -0.29,0.64 -0.87,1.9 -1.16,2.53 -0.08,-0.47 -0.24,-1.41 -0.33,-1.88 0.64,-64.17 0.06,-128.35 0.3,-192.52 z" /><path
         id="path142"
         fill="#014a84"
         d="m 391.01,0 h 1.94 c 0.54,66.56 3.73,133.67 -1.02,200 h -1.95 c 0.02,-1.87 0.04,-3.73 0.08,-5.6 0.29,-0.63 0.87,-1.89 1.16,-2.53 C 392.5,128.99 392.55,65.65 391.25,2.86 391.19,2.14 391.07,0.71 391.01,0 Z" /><path
         id="path144"
         fill="#01487e"
         d="m 392.95,0 h 0.96 c 4.73,66.24 0.71,134.67 1.97,200 h -3.95 c 4.75,-66.33 1.56,-133.44 1.02,-200 z" /><path
         id="path146"
         fill="#014779"
         d="m 393.91,0 h 1.9 c 4.69,63.13 -1.27,127.02 1.61,190.51 2.92,0.94 6,1.2 9.02,1.62 3.14,1.48 3.81,4.69 3.84,7.87 h -14.4 C 394.62,134.67 398.64,66.24 393.91,0 Z" /><path
         id="path148"
         fill="#024874"
         d="m 395.81,0 h 3.8 c 3.43,6.33 -4.62,17.5 2.6,25.1 1.95,54.39 0.11,109.12 0.87,163.62 0.16,1.83 2.71,1.89 3.95,2.86 l -0.59,0.55 c -3.02,-0.42 -6.1,-0.68 -9.02,-1.62 C 394.54,127.02 400.5,63.13 395.81,0 Z" /><path
         id="path150"
         fill="#014a72"
         d="m 399.61,0 h 9.15 c -2.31,63.54 1.1,129.37 -1.73,191.58 -1.24,-0.97 -3.79,-1.03 -3.95,-2.86 -0.76,-54.5 1.08,-109.23 -0.87,-163.62 -7.22,-7.6 0.83,-18.77 -2.6,-25.1 z" /><path
         id="path152"
         fill="#014d75"
         d="m 408.76,0 h 6.13 c -6.49,58.17 -1.13,122.89 -2.87,183.7 -3.08,9.46 13.51,6 8.04,16.3 h -9.78 c -0.03,-3.18 -0.7,-6.39 -3.84,-7.87 l 0.59,-0.55 C 409.86,129.37 406.45,63.54 408.76,0 Z" /><path
         id="path154"
         fill="#015077"
         d="m 414.89,0 h 5.99 c 3.24,63.26 2.41,126.69 1.53,190.01 4.18,2.16 16.5,3.66 9.37,9.99 h -11.72 c 5.47,-10.3 -11.12,-6.84 -8.04,-16.3 C 413.76,122.89 408.4,58.17 414.89,0 Z" /><path
         id="path156"
         fill="#005475"
         d="m 420.88,0 h 10.65 c 7.12,10.72 -0.91,23.22 1.4,34.92 2.37,54.85 -4.16,110.91 2.75,165.08 h -3.9 c 7.13,-6.33 -5.19,-7.83 -9.37,-9.99 C 423.29,126.69 424.12,63.26 420.88,0 Z" /><path
         id="path158"
         fill="#005975"
         d="m 431.53,0 h 4.78 c 1.65,2.97 3.76,6.06 7.78,5.89 -4.75,62.36 -0.81,125.22 -2.08,187.76 2.11,0.07 4.22,0 6.33,-0.06 1.08,2 1.55,4.24 2.19,6.41 H 435.68 C 428.77,145.83 435.3,89.77 432.93,34.92 430.62,23.22 438.65,10.72 431.53,0 Z" /><path
         id="path160"
         fill="#015d75"
         d="m 436.31,0 h 16.02 l 0.02,0.92 c -2.49,2.25 -7.49,3.67 -5.07,8.32 -0.25,56.55 -0.33,113.16 -0.32,169.74 0.2,4.88 -1.97,10.33 1.38,14.61 -2.11,0.06 -4.22,0.13 -6.33,0.06 1.27,-62.54 -2.67,-125.4 2.08,-187.76 -4.02,0.17 -6.13,-2.92 -7.78,-5.89 z" /><path
         id="path162"
         fill="#015e6f"
         d="m 452.33,0 h 6.93 c -3.77,64.18 -2.48,128.81 -1.51,193.02 -2.39,0.05 -4.57,-1.06 -4.41,-3.78 -1.23,-62.75 0.74,-125.57 -0.99,-188.32 z" /><path
         id="path164"
         fill="#005e69"
         d="m 459.26,0 h 3.96 c -4.2,61.25 0.97,123.82 -1.73,185.5 -2.56,7.09 8.95,6.65 6.98,14.5 h -6.78 c -0.57,-2.72 -1.66,-5.28 -3.94,-6.98 C 456.78,128.81 455.49,64.18 459.26,0 Z" /><path
         id="path166"
         fill="#005d64"
         d="m 463.22,0 h 8.94 c -10.54,60.45 -2.19,125.95 -5.82,188.61 3.29,3.09 6.16,6.64 5.96,11.39 h -3.83 c 1.97,-7.85 -9.54,-7.41 -6.98,-14.5 2.7,-61.68 -2.47,-124.25 1.73,-185.5 z" /><path
         id="path168"
         fill="#005d60"
         d="m 472.16,0 h 4.97 c -1.79,9.88 8.23,29.4 -4.9,32.85 -1.06,52.19 0.95,104.48 -1.01,156.65 4.19,2.09 5.7,5.76 4.84,10.5 h -3.76 c 0.2,-4.75 -2.67,-8.3 -5.96,-11.39 C 469.97,125.95 461.62,60.45 472.16,0 Z" /><path
         id="path170"
         fill="#005e5d"
         d="m 477.13,0 h 2.89 c 0.23,66.57 0.84,133.49 -1.1,200 h -2.86 c 0.86,-4.74 -0.65,-8.41 -4.84,-10.5 1.96,-52.17 -0.05,-104.46 1.01,-156.65 13.13,-3.45 3.11,-22.97 4.9,-32.85 z" /><path
         id="path172"
         fill="#015c58"
         d="m 480.02,0 h 1.87 c 2.84,10.08 3.05,21.68 4.84,31.03 -1.9,53.12 -4.81,114.56 1.4,168.97 h -9.21 c 1.94,-66.51 1.33,-133.43 1.1,-200 z" /><path
         id="path174"
         fill="#015d56"
         d="m 481.89,0 h 5.91 c 3.58,65.95 1.5,133.4 2.27,200 h -1.94 c -6.21,-54.41 -3.3,-115.85 -1.4,-168.97 -1.79,-9.35 -2,-20.95 -4.84,-31.03 z" /><path
         id="path176"
         fill="#015d52"
         d="m 487.8,0 h 5.17 c 3.22,66.49 -0.28,133.35 1.12,200 h -4.02 C 489.3,133.4 491.38,65.95 487.8,0 Z" /><path
         id="path178"
         fill="#015d4e"
         d="m 492.97,0 h 3.14 c 4.81,66.29 0.1,133.47 2.02,200 h -4.04 c -1.4,-66.65 2.1,-133.51 -1.12,-200 z" /><path
         id="path180"
         fill="#015d4a"
         d="m 496.11,0 h 6.54 c -7.72,7.57 4.75,21.27 1.26,32.04 -2.65,55.84 0.75,112.03 -1.78,167.96 h -4 C 496.21,133.47 500.92,66.29 496.11,0 Z" /><path
         id="path182"
         fill="#015e47"
         d="m 502.65,0 h 5.1 c -1.41,1.72 -2.78,4.03 -5.32,3.82 7.04,11.52 7.05,25.24 5.67,38.34 -0.23,46.58 -0.09,93.18 -0.02,139.76 2.75,7.15 -7.35,11.52 -2.06,18.08 h -3.89 C 504.66,144.07 501.26,87.88 503.91,32.04 507.4,21.27 494.93,7.57 502.65,0 Z" /><path
         id="path184"
         fill="#005d43"
         d="m 507.75,0 h 4.78 c -7.08,7.03 1.77,15.23 -0.3,23.46 -0.66,58.64 4.91,118.73 -2.38,176.54 h -3.83 c -5.29,-6.56 4.81,-10.93 2.06,-18.08 -0.07,-46.58 -0.21,-93.18 0.02,-139.76 1.38,-13.1 1.37,-26.82 -5.67,-38.34 2.54,0.21 3.91,-2.1 5.32,-3.82 z" /><path
         id="path186"
         fill="#005c3e"
         d="m 512.53,0 h 4.8 c -0.36,52.2 1.5,106.2 0.68,159.09 1.36,13.58 -2.78,27.63 1.32,40.91 h -9.48 c 7.29,-57.81 1.72,-117.9 2.38,-176.54 2.07,-8.23 -6.78,-16.43 0.3,-23.46 z" /><path
         id="path188"
         fill="#005e39"
         d="m 517.33,0 h 6.01 c -5.04,14.48 -0.67,30.23 -0.36,45.1 0.12,40 -0.1,80.01 0.08,120.02 0.52,11.65 -2.77,23.73 2.22,34.88 h -5.95 c -4.1,-13.28 0.04,-27.33 -1.32,-40.91 C 518.83,106.2 516.97,52.2 517.33,0 Z" /><path
         id="path190"
         fill="#005d34"
         d="m 523.34,0 h 5.03 c -3.98,4.89 -2.75,11.35 -2.89,17.16 0.79,56.15 0.84,112.36 0.11,168.49 -2.33,5.74 5.48,8.45 2.48,14.35 h -2.79 c -4.99,-11.15 -1.7,-23.23 -2.22,-34.88 C 522.88,125.11 523.1,85.1 522.98,45.1 522.67,30.23 518.3,14.48 523.34,0 Z" /><path
         id="path192"
         fill="#015d30"
         d="m 528.37,0 h 3.87 c -1.53,3.71 -2.39,7.73 -1.84,11.74 2.1,60.42 -1.09,121.76 1.38,181.73 0.34,2.18 0.8,4.33 1,6.53 h -4.71 c 3,-5.9 -4.81,-8.61 -2.48,-14.35 0.73,-56.13 0.68,-112.34 -0.11,-168.49 0.14,-5.81 -1.09,-12.27 2.89,-17.16 z" /><path
         id="path194"
         fill="#015e2c"
         d="m 532.24,0 h 4.81 c -4.28,7.83 4.66,3.26 5.78,8.61 1.48,4.21 -7.65,2.21 -6.59,5.86 6.81,3.21 6.97,14.69 0.28,18.25 1.03,50.57 0.23,101.18 0.49,151.77 1.81,4.67 -2.78,6.39 -5.23,8.98 C 529.31,133.5 532.5,72.16 530.4,11.74 529.85,7.73 530.71,3.71 532.24,0 Z" /><path
         id="path196"
         fill="#015d29"
         d="m 537.05,0 h 4.96 c 5.74,9.85 -0.02,20.79 0.55,31.23 0.96,51.14 0.17,102.32 0.48,153.47 1.23,7.17 -10.24,7.47 -7.5,15.3 h -2.76 c -0.2,-2.2 -0.66,-4.35 -1,-6.53 2.45,-2.59 7.04,-4.31 5.23,-8.98 -0.26,-50.59 0.54,-101.2 -0.49,-151.77 6.69,-3.56 6.53,-15.04 -0.28,-18.25 -1.06,-3.65 8.07,-1.65 6.59,-5.86 C 541.71,3.26 532.77,7.83 537.05,0 Z" /><path
         id="path198"
         fill="#015c25"
         d="m 542.01,0 h 6.11 c -6.89,61.12 0.29,130.16 -4.95,193.21 -4.54,-0.3 -7.13,2.21 -6.69,6.79 h -0.94 c -2.74,-7.83 8.73,-8.13 7.5,-15.3 C 542.73,133.55 543.52,82.37 542.56,31.23 541.99,20.79 547.75,9.85 542.01,0 Z" /><path
         id="path200"
         fill="#005d21"
         d="m 548.12,0 h 4.97 c 1.91,7.68 1.29,15.5 -0.53,23.14 1.76,56.06 3.14,112.78 -0.27,168.75 -3.14,-1.22 -6.01,1.12 -9.12,1.32 C 548.41,130.16 541.23,61.12 548.12,0 Z" /><path
         id="path202"
         fill="#015e1c"
         d="m 553.09,0 h 3.96 c 5.49,59.56 -0.14,121.99 2.02,182.71 2.08,5.8 -2.31,8.73 -6.56,10.82 -0.05,-0.41 -0.16,-1.23 -0.22,-1.64 C 555.7,135.92 554.32,79.2 552.56,23.14 554.38,15.5 555,7.68 553.09,0 Z" /><path
         id="path204"
         fill="#015e18"
         d="m 557.05,0 h 2.98 c -3.67,1.52 2.45,4.86 1.58,7.87 -2.34,63.98 2.25,128.37 -2.58,192.13 h -5.84 c -0.17,-1.62 -0.51,-4.85 -0.68,-6.47 4.25,-2.09 8.64,-5.02 6.56,-10.82 C 556.91,121.99 562.54,59.56 557.05,0 Z" /><path
         id="path206"
         fill="#005e14"
         d="m 560.03,0 h 1.96 c 0.07,12.71 10.87,24.9 5.39,37.1 1.21,48.49 0.63,97.05 0.34,145.54 -0.83,3.46 0.76,6.5 2.53,9.35 -6.56,-3.68 -10,2.5 -9.31,8.01 h -1.91 C 563.86,136.24 559.27,71.85 561.61,7.87 562.48,4.86 556.36,1.52 560.03,0 Z" /><path
         id="path208"
         fill="#015f10"
         d="m 561.99,0 h 6.12 c -3.4,7.84 8.04,16.11 6.52,25.08 -2.77,58.24 2.5,116.86 -2.73,174.92 h -0.94 c -0.22,-2.69 -0.01,-5.4 -0.71,-8.01 -1.77,-2.85 -3.36,-5.89 -2.53,-9.35 0.29,-48.49 0.87,-97.05 -0.34,-145.54 5.48,-12.2 -5.32,-24.39 -5.39,-37.1 z" /><path
         id="path210"
         fill="#03610c"
         d="m 568.11,0 h 9 c -3.77,65.83 1.56,133.63 -2.28,200 H 571.9 C 577.13,141.94 571.86,83.32 574.63,25.08 576.15,16.11 564.71,7.84 568.11,0 Z" /><path
         id="path212"
         fill="#046006"
         d="m 577.11,0 h 0.93 c -3.8,66.2 2.24,133.75 -2.24,200 h -0.97 c 3.84,-66.37 -1.49,-134.17 2.28,-200 z" /><path
         id="path214"
         fill="#025f02"
         d="m 578.04,0 h 0.95 c -0.08,66.67 0.19,133.34 -0.12,200 h -3.07 c 4.48,-66.25 -1.56,-133.8 2.24,-200 z" /><path
         id="path216"
         fill="#027b06"
         d="m 578.99,0 h 1 c -0.05,66.67 0.14,133.33 -0.09,200 h -1.03 c 0.31,-66.66 0.04,-133.33 0.12,-200 z" /><path
         id="path218"
         fill="#0db11a"
         d="m 579.99,0 h 1 c -0.04,66.67 0.12,133.33 -0.07,200 h -1.02 c 0.23,-66.67 0.04,-133.33 0.09,-200 z" /><path
         id="path220"
         fill="#1bd82e"
         d="m 580.99,0 h 1 c -0.03,5.27 -0.18,10.54 -0.27,15.81 0.67,59.19 0.03,118.39 0.34,177.58 -0.04,1.66 -0.11,4.96 -0.15,6.61 h -0.99 c 0.19,-66.67 0.03,-133.33 0.07,-200 z" /><path
         id="path222"
         fill="#2cea3d"
         d="m 581.99,0 h 3.04 c 0.08,5.71 0.28,11.41 0.36,17.12 -1.26,-0.37 -2.48,-0.8 -3.67,-1.31 0.09,-5.27 0.24,-10.54 0.27,-15.81 z" /><path
         id="path224"
         fill="#25ca36"
         d="m 585.03,0 h 1.01 c -0.1,66.67 0.01,133.33 -0.06,200 h -1.02 C 584.9,143.91 585.28,87.82 584.76,31.73 584.93,26.86 585.3,22 585.39,17.12 585.31,11.41 585.11,5.71 585.03,0 Z" /><path
         id="path226"
         fill="#099b13"
         d="m 586.04,0 h 1 c -0.1,66.67 -0.02,133.33 -0.04,200 h -1.02 c 0.07,-66.67 -0.04,-133.33 0.06,-200 z" /><path
         id="path228"
         fill="#007501"
         d="m 587.04,0 h 1.01 c -0.1,66.67 -0.05,133.33 -0.02,200 H 587 c 0.02,-66.67 -0.06,-133.33 0.04,-200 z" /><path
         id="path230"
         fill="#016a00"
         d="m 588.05,0 h 1.01 c -0.11,66.67 -0.07,133.33 -0.02,200 h -1.01 C 588,133.33 587.95,66.67 588.05,0 Z" /><path
         id="path232"
         fill="#045e01"
         d="m 589.06,0 h 15.22 c -0.41,5.08 -0.14,12.18 5.62,14.2 5.98,3.49 -7.06,5.7 -4.99,10.94 -0.44,55.45 0.95,111.34 -0.42,166.83 -2.85,4.57 -2.39,3.26 -4.48,-0.1 -0.68,-52.83 1.16,-106.19 -0.79,-159.09 -0.05,-4.21 -4.79,-3.5 -7.19,-1.75 1.28,-2.3 4.71,-9.55 0.05,-5.91 -2.83,55.33 0.18,111.16 -1.44,166.66 -0.25,2.72 -0.44,5.48 -0.63,8.22 h -0.97 C 588.99,133.33 588.95,66.67 589.06,0 Z" /><path
         id="path234"
         fill="#095e00"
         d="m 604.28,0 h 1.84 c -6.17,11.03 18.61,10.19 11.07,21.16 -6.97,1.3 -16.34,7.72 -6.18,13.74 0.14,50.48 -0.21,101.72 0.11,152.49 -0.95,4.72 -7.01,6.87 -5.63,12.61 h -7.72 c 0.26,-2.85 0.7,-5.68 2.24,-8.13 2.09,3.36 1.63,4.67 4.48,0.1 1.37,-55.49 -0.02,-111.38 0.42,-166.83 -2.07,-5.24 10.97,-7.45 4.99,-10.94 -5.76,-2.02 -6.03,-9.12 -5.62,-14.2 z" /><path
         id="path236"
         fill="#0c5d01"
         d="m 606.12,0 h 1.83 c -1.81,7.41 11.41,5.25 12.69,12.85 4.07,9.23 -3.65,13.21 -10.55,15.28 -0.02,4.27 4.56,5.16 7.86,4 2.52,50.35 0.26,101.13 1.11,151.64 4.23,10.67 -13.05,6.28 -10.76,16.23 h -2.81 c -1.38,-5.74 4.68,-7.89 5.63,-12.61 C 610.8,136.62 611.15,85.38 611.01,34.9 600.85,28.88 610.22,22.46 617.19,21.16 624.73,10.19 599.95,11.03 606.12,0 Z" /><path
         id="path238"
         fill="#105c01"
         d="m 607.95,0 h 15.69 c -5.02,2.69 -1.78,8.64 -0.23,12.53 -6.98,61.9 1.66,125.44 -3.84,187.47 H 608.3 c -2.29,-9.95 14.99,-5.56 10.76,-16.23 -0.85,-50.51 1.41,-101.29 -1.11,-151.64 -3.3,1.16 -7.88,0.27 -7.86,-4 6.9,-2.07 14.62,-6.05 10.55,-15.28 C 619.36,5.25 606.14,7.41 607.95,0 Z" /><path
         id="path240"
         fill="#145d00"
         d="m 623.64,0 h 3.8 c -1.35,63.45 3.22,134.13 -0.73,200 h -7.14 C 625.07,137.97 616.43,74.43 623.41,12.53 621.86,8.64 618.62,2.69 623.64,0 Z" /><path
         id="path242"
         fill="#175d00"
         d="m 627.44,0 h 5.73 c -2.41,60.55 -0.55,121.28 -1.25,181.9 -3.41,8.44 8.38,10.17 3.98,18.1 h -9.19 c 3.95,-65.87 -0.62,-136.55 0.73,-200 z" /><path
         id="path244"
         fill="#1b5d00"
         d="m 633.17,0 h 6.91 c -1.51,62.01 1,125.34 -0.16,187.81 -1.26,7.99 14.39,2.68 9.37,12.19 H 635.9 c 4.4,-7.93 -7.39,-9.66 -3.98,-18.1 0.7,-60.62 -1.16,-121.35 1.25,-181.9 z" /><path
         id="path246"
         fill="#205d00"
         d="m 640.08,0 h 3.89 c 0.18,63.17 -0.2,126.38 0.17,189.53 5.64,1.75 11.23,2.91 8.01,10.47 h -2.86 c 5.02,-9.51 -10.63,-4.2 -9.37,-12.19 1.16,-62.47 -1.35,-125.8 0.16,-187.81 z" /><path
         id="path248"
         fill="#255d00"
         d="m 643.97,0 h 8.04 c -0.04,61.92 0.04,123.83 -0.06,185.75 -0.37,5.53 7.61,8.52 3.98,14.25 h -3.78 c 3.22,-7.56 -2.37,-8.72 -8.01,-10.47 C 643.77,126.38 644.15,63.17 643.97,0 Z" /><path
         id="path250"
         fill="#285e00"
         d="m 652.01,0 h 3.97 c 0.6,62.73 -0.56,125.52 0.22,188.26 3.33,3.17 4.26,7.22 3.61,11.74 h -3.88 c 3.63,-5.73 -4.35,-8.72 -3.98,-14.25 0.1,-61.92 0.02,-123.83 0.06,-185.75 z" /><path
         id="path252"
         fill="#2c5d00"
         d="m 655.98,0 h 4.93 c 4.32,66.28 1.28,133.38 1.9,200 h -3 c 0.65,-4.52 -0.28,-8.57 -3.61,-11.74 C 655.42,125.52 656.58,62.73 655.98,0 Z" /><path
         id="path254"
         fill="#315e00"
         d="m 660.91,0 h 9.04 c 3.52,63.93 1.85,128.02 1.75,192.01 -3.39,1.55 -6.77,3.19 -4.9,7.99 h -3.99 c -0.62,-66.62 2.42,-133.72 -1.9,-200 z" /><path
         id="path256"
         fill="#355d01"
         d="m 669.95,0 h 2.98 c 2.58,60.03 0.43,120.47 0.98,180.85 -3.12,8.37 8.09,10.6 5.32,19.15 H 666.8 c -1.87,-4.8 1.51,-6.44 4.9,-7.99 C 671.8,128.02 673.47,63.93 669.95,0 Z" /><path
         id="path258"
         fill="#385d00"
         d="m 672.93,0 h 2.97 c 9.29,63.95 0.54,133.73 5.26,200 h -1.93 C 682,191.45 670.79,189.22 673.91,180.85 673.36,120.47 675.51,60.03 672.93,0 Z" /><path
         id="path260"
         fill="#3b5d00"
         d="m 675.9,0 h 8.07 c 0.68,66.3 -1.43,133.43 1.14,200 h -3.95 C 676.44,133.73 685.19,63.95 675.9,0 Z" /><path
         id="path262"
         fill="#3f5e00"
         d="m 683.97,0 h 3.98 c -0.98,66.61 1.93,133.58 -0.93,200 h -1.91 C 682.54,133.43 684.65,66.3 683.97,0 Z" /><path
         id="path264"
         fill="#435d01"
         d="m 687.95,0 h 6.03 c -2.81,12.89 4.93,26.24 -1.6,37.74 1.38,53.88 -4.55,109.2 2.65,162.26 h -8.01 c 2.86,-66.42 -0.05,-133.39 0.93,-200 z" /><path
         id="path266"
         fill="#465d00"
         d="m 693.98,0 h 6.08 c -3.37,11.25 5.52,26 -2.91,35 0.36,52.93 -1.5,106.02 0.92,158.86 -3.25,0.75 -1.88,3.92 -1.19,6.14 h -1.85 c -7.2,-53.06 -1.27,-108.38 -2.65,-162.26 6.53,-11.5 -1.21,-24.85 1.6,-37.74 z" /><path
         id="path268"
         fill="#495e00"
         d="m 700.06,0 h 4.05 c -0.16,63.9 -0.23,127.79 0.03,191.69 -1.87,1.12 -3.93,1.81 -6.07,2.17 -2.42,-52.84 -0.56,-105.93 -0.92,-158.86 8.43,-9 -0.46,-23.75 2.91,-35 z" /><path
         id="path270"
         fill="#4d5e01"
         d="m 704.11,0 h 8.03 c -0.36,63.79 -0.4,127.64 0.3,191.43 -2.26,2.43 -5.57,0.69 -8.3,0.26 C 703.88,127.79 703.95,63.9 704.11,0 Z" /><path
         id="path272"
         fill="#505d01"
         d="m 712.14,0 h 3.92 c 0.09,62.87 -0.15,126.25 -0.1,189.33 -0.27,1.97 1.9,2.71 3.21,3.6 -0.94,0.43 -1.9,0.78 -2.89,1.04 -1.3,-0.83 -2.55,-1.72 -3.84,-2.54 C 711.74,127.64 711.78,63.79 712.14,0 Z" /><path
         id="path274"
         fill="#535e00"
         d="m 716.06,0 h 3.92 c 0.29,63.91 -0.49,127.84 0.4,191.75 -0.3,0.29 -0.91,0.88 -1.21,1.18 -1.31,-0.89 -3.48,-1.63 -3.21,-3.6 -0.05,-63.08 0.19,-126.46 0.1,-189.33 z" /><path
         id="path276"
         fill="#565e00"
         d="m 719.98,0 h 4 c 0.56,64.06 -0.99,128.24 0.7,192.24 -1.44,-0.19 -2.88,-0.35 -4.3,-0.49 C 719.49,127.84 720.27,63.91 719.98,0 Z" /><path
         id="path278"
         fill="#595e00"
         d="m 723.98,0 h 4.01 c 0.21,63.92 -0.37,127.85 0.29,191.76 -0.27,0.39 -0.81,1.17 -1.09,1.56 -0.62,-0.27 -1.88,-0.81 -2.51,-1.08 -1.69,-64 -0.14,-128.18 -0.7,-192.24 z" /><path
         id="path280"
         fill="#5d5e00"
         d="m 727.99,0 h 7.03 c 0.64,64.02 2.32,128.39 0.05,192.24 -1.7,-0.12 -5.09,-0.36 -6.79,-0.48 C 727.62,127.85 728.2,63.92 727.99,0 Z" /><path
         id="path282"
         fill="#5f5a00"
         d="m 735.02,0 h 9.01 c -0.03,62.16 -0.11,124.32 0.06,186.48 0.31,2.55 -1.93,4.14 -3.5,5.73 -1.85,0.03 -3.69,0.07 -5.52,0.03 C 737.34,128.39 735.66,64.02 735.02,0 Z" /><path
         id="path284"
         fill="#5e5700"
         d="m 744.03,0 h 4.92 c 4.17,61.39 3.1,124.5 2.99,187.26 -0.8,2.69 -3.45,4.47 -5.03,6.77 -2.06,-0.78 -4.17,-1.41 -6.32,-1.82 1.57,-1.59 3.81,-3.18 3.5,-5.73 C 743.92,124.32 744,62.16 744.03,0 Z" /><path
         id="path286"
         fill="#5f5401"
         d="m 748.95,0 h 7.45 c 4.06,4.34 6.34,9.84 1.31,14.78 2.48,61.56 1.53,123.54 0.41,185.22 h -9.63 c -0.51,-2 -1,-4 -1.58,-5.97 1.58,-2.3 4.23,-4.08 5.03,-6.77 C 752.05,124.5 753.12,61.39 748.95,0 Z" /><path
         id="path288"
         fill="#5f5000"
         d="m 756.4,0 h 8.83 c 3.61,3.53 0.54,11.47 2.83,16.76 0.38,56.72 -0.88,113.6 0.52,170.36 1.43,7.23 -11.61,4.57 -7.73,12.88 h -2.73 C 759.24,138.32 760.19,76.34 757.71,14.78 762.74,9.84 760.46,4.34 756.4,0 Z" /><path
         id="path290"
         fill="#604b01"
         d="m 765.23,0 h 15.91 c -2.84,63.8 3.26,129.22 -1.89,192.11 -7.13,-2.44 -12.49,0.66 -13.79,7.89 h -4.61 c -3.88,-8.31 9.16,-5.65 7.73,-12.88 C 767.18,130.36 768.44,73.48 768.06,16.76 765.77,11.47 768.84,3.53 765.23,0 Z" /><path
         id="path292"
         fill="#5f4700"
         d="m 781.14,0 h 3.96 c -4.24,10.14 7.76,18.27 -0.05,27.86 5.84,55.13 -1.7,115.51 3.17,172.14 h -4.82 c -0.79,-2.92 -1.29,-6.24 -4.15,-7.89 C 784.4,129.22 778.3,63.8 781.14,0 Z" /><path
         id="path294"
         fill="#5e4401"
         d="m 785.1,0 h 7.8 l -0.2,1.84 c -3.85,9.13 8.03,15.81 1.02,24.7 -4.82,5.23 4.85,7.87 2.25,13.86 -0.49,44.78 1.23,91.06 -0.97,135.03 5.33,6.54 0.53,13.39 -3.2,18.98 -0.05,1.86 0.11,3.73 0.28,5.59 h -3.86 C 783.35,143.37 790.89,82.99 785.05,27.86 792.86,18.27 780.86,10.14 785.1,0 Z" /><path
         id="path296"
         fill="#5f3e01"
         d="m 792.9,0 h 8.97 c 6.34,49.45 -0.18,100.09 2.09,149.99 -0.04,16.63 2.77,33.71 -1.71,50.01 h -10.17 c -0.17,-1.86 -0.33,-3.73 -0.28,-5.59 2.69,-2.63 7.25,-2.48 9.67,-5.13 C 801.81,135.77 802.35,82 801.85,28.41 804.11,19.6 800.54,10.99 799.11,2.37 796.4,2.3 794.55,5.56 792.7,1.84 Z" /><path
         id="path298"
         fill="#623b05"
         d="m 801.87,0 h 7.05 c -2.47,66.46 -0.57,133.49 0.11,200 h -6.78 c 4.48,-16.3 1.67,-33.38 1.71,-50.01 C 801.69,100.09 808.21,49.45 801.87,0 Z" /><path
         id="path300"
         fill="#5e3b02"
         d="m 808.92,0 h 4.02 c 1.07,46.98 -0.5,93.99 0.01,141.01 -1.01,19.68 5.02,40.26 -3,58.99 h -0.92 C 808.35,133.49 806.45,66.46 808.92,0 Z" /><path
         id="path302"
         fill="#663a02"
         d="m 812.94,0 h 2.04 c -0.74,66.65 1.57,133.42 -1.13,200 h -3.9 c 8.02,-18.73 1.99,-39.31 3,-58.99 C 812.44,93.99 814.01,46.98 812.94,0 Z" /><path
         id="path304"
         fill="#703f02"
         d="m 814.98,0 h 1.01 c -0.07,66.67 0.19,133.34 -0.12,200 h -2.02 c 2.7,-66.58 0.39,-133.35 1.13,-200 z" /><path
         id="path306"
         fill="#a3670b"
         d="M 815.99,0 H 817 c -0.08,66.67 0.16,133.33 -0.11,200 h -1.02 c 0.31,-66.66 0.05,-133.33 0.12,-200 z" /><path
         id="path308"
         fill="#cc8c22"
         d="m 817,0 h 1.02 c -0.1,66.67 0.11,133.33 -0.11,200 h -1.02 C 817.16,133.33 816.92,66.67 817,0 Z" /><path
         id="path310"
         fill="#f8b647"
         d="m 818.02,0 h 2.03 c -0.14,66.67 0.02,133.33 -0.08,200 h -2.06 c 0.22,-66.67 0.01,-133.33 0.11,-200 z" /><path
         id="path312"
         fill="#d7932e"
         d="m 820.05,0 h 1.02 c -0.17,66.67 -0.01,133.33 -0.08,200 h -1.02 c 0.1,-66.67 -0.06,-133.33 0.08,-200 z" /><path
         id="path314"
         fill="#ac6917"
         d="m 821.07,0 h 1.01 C 821.9,66.67 822.04,133.33 822,200 h -1.01 C 821.06,133.33 820.9,66.67 821.07,0 Z" /><path
         id="path316"
         fill="#753804"
         d="m 822.08,0 h 1 c -0.19,65.05 -0.03,130.09 -0.08,195.14 -0.04,1.62 -0.02,3.24 0.01,4.86 H 822 c 0.04,-66.67 -0.1,-133.33 0.08,-200 z" /><path
         id="path318"
         fill="#622d02"
         d="m 823.08,0 h 0.98 c 4.7,56 -2.29,113.04 1.96,169.39 1.2,7.84 -2.88,16.71 2.09,23.74 -2.68,-1.62 -4.82,-1.52 -5.11,2.01 C 823.05,130.09 822.89,65.05 823.08,0 Z" /><path
         id="path320"
         fill="#5c3206"
         d="m 824.06,0 h 2.95 c 0.24,3.91 0.86,7.79 2.03,11.53 -0.02,1.73 -0.02,3.47 -0.04,5.2 -2.27,56.89 -0.43,113.92 -0.97,170.86 -0.64,3.05 3.04,8.63 3.87,3.05 0.44,0.11 1.33,0.33 1.77,0.44 0.41,0.15 1.24,0.44 1.65,0.59 -4.22,0.33 -2.86,5.18 -3.4,8.33 h -2.9 c -0.3,-2.29 -0.46,-4.6 -0.91,-6.87 -4.97,-7.03 -0.89,-15.9 -2.09,-23.74 C 821.77,113.04 828.76,56 824.06,0 Z" /><path
         id="path322"
         fill="#553503"
         d="m 827.01,0 h 9.65 c -3.63,3.04 -5.18,7.63 -7.62,11.53 C 827.87,7.79 827.25,3.91 827.01,0 Z" /><path
         id="path324"
         fill="#5d3101"
         d="m 836.66,0 h 12.45 c -3.69,4.74 -8.88,7.28 -13.82,10.2 -4.53,6.71 9.84,7.45 7.66,12.78 -2.59,1.82 -5.28,3.45 -8.34,4.3 -0.19,53.49 2.11,109.89 -0.94,163.8 -0.44,-0.11 -1.33,-0.33 -1.77,-0.44 0.15,-55.06 0.19,-110.14 0,-165.2 -1.06,-2.12 1.14,-8.38 -2.9,-8.71 0.02,-1.73 0.02,-3.47 0.04,-5.2 2.44,-3.9 3.99,-8.49 7.62,-11.53 z" /><path
         id="path326"
         fill="#5f2a01"
         d="m 849.11,0 h 9.82 c -3.2,5.8 -14.25,6.03 -13.79,13.41 7.31,1.72 10.34,10.16 4.67,15.29 5.08,51.74 0.83,108.38 2.12,161.88 -4.73,2.18 -12.54,2.25 -9.13,9.42 h -2.85 c 0.04,-1.6 0.11,-4.79 0.14,-6.39 1.16,-1.19 3.03,-1.94 3.54,-3.62 0.32,-55.59 1.09,-111.61 -0.68,-167.01 2.18,-5.33 -12.19,-6.07 -7.66,-12.78 4.94,-2.92 10.13,-5.46 13.82,-10.2 z" /><path
         id="path328"
         fill="#5f2601"
         d="m 858.93,0 h 4.69 c -3.64,4.09 -8.72,8.54 -7.45,14.71 2.96,59.66 -1.17,119.74 1.64,179.45 2.24,-0.21 4.27,-1.23 6.28,-2.18 0.27,2.69 0.71,5.36 1.19,8.02 H 842.8 c -3.41,-7.17 4.4,-7.24 9.13,-9.42 -1.29,-53.5 2.96,-110.14 -2.12,-161.88 5.67,-5.13 2.64,-13.57 -4.67,-15.29 C 844.68,6.03 855.73,5.8 858.93,0 Z" /><path
         id="path330"
         fill="#5e2000"
         d="m 863.62,0 h 19.33 c -7.68,7.41 -3.43,15.16 -2.68,23.52 -6.3,-0.77 -6.77,6.95 -4.99,11.25 1.85,51.87 -0.05,103.93 0.89,155.84 0.21,2.9 2.79,0.2 4.04,-0.41 0.03,3.29 0.32,6.6 1.1,9.8 h -16.03 c -0.48,-2.66 -0.92,-5.33 -1.19,-8.02 4.6,-49.21 0.45,-99.24 2.02,-148.76 2.74,-6.61 -8.37,-11.78 -2.86,-17.35 3.23,-5.58 -1.42,-11.13 -7.08,-11.16 C 854.9,8.54 859.98,4.09 863.62,0 Z" /><path
         id="path332"
         fill="#5e1a00"
         d="m 882.95,0 h 7.93 c -11.98,9.11 -4.96,27.05 -3.93,39.42 -0.18,50.91 0.63,101.85 -0.43,152.75 3.5,1.34 5.09,4.09 4.55,7.83 h -9.76 c -0.78,-3.2 -1.07,-6.51 -1.1,-9.8 -0.36,-55.55 -0.37,-111.12 0.06,-166.68 -0.75,-8.36 -5,-16.11 2.68,-23.52 z" /><path
         id="path334"
         fill="#5d1600"
         d="m 890.88,0 h 6.57 c -1.11,6.32 -8.42,6.41 -11.31,11.24 0.83,3.77 3.67,10.6 8.04,7.08 3.84,6.7 -15.55,13.46 0.72,14.77 2.43,54.85 0.63,113.85 0.99,166.91 h -4.82 c 0.54,-3.74 -1.05,-6.49 -4.55,-7.83 1.06,-50.9 0.25,-101.84 0.43,-152.75 C 885.92,27.05 878.9,9.11 890.88,0 Z" /><path
         id="path336"
         fill="#5e1301"
         d="m 897.45,0 h 3.72 c -3.39,5.88 4.1,14.77 -3.43,17.39 2.23,59.07 1.51,118.85 0.57,178.14 3.71,-1.67 4.42,1.33 4.78,4.47 h -7.2 c -0.36,-53.06 1.44,-112.06 -0.99,-166.91 -16.27,-1.31 3.12,-8.07 -0.72,-14.77 -4.37,3.52 -7.21,-3.31 -8.04,-7.08 2.89,-4.83 10.2,-4.92 11.31,-11.24 z" /><path
         id="path338"
         fill="#5e1101"
         d="m 901.17,0 h 4.94 c 2.7,62.25 2.48,127.32 1.17,190.78 2.31,1.19 4.68,2.5 5.47,5.2 0.53,1.33 1.05,2.68 1.59,4.02 h -11.25 c -0.36,-3.14 -1.07,-6.14 -4.78,-4.47 0.94,-59.29 1.66,-119.07 -0.57,-178.14 7.53,-2.62 0.04,-11.51 3.43,-17.39 z" /><path
         id="path340"
         fill="#5e0e01"
         d="m 906.11,0 h 10.29 c -3.92,2.75 -2.03,8.19 -2.94,12.16 -0.63,-1.83 1.19,-8.5 -2.25,-7.79 6.42,61.17 1.2,123.91 2.49,184.84 1.25,1.07 2.64,1.98 4.05,2.85 -1.71,1.25 -3.36,2.58 -5,3.92 -0.79,-2.7 -3.16,-4.01 -5.47,-5.2 C 908.59,127.32 908.81,62.25 906.11,0 Z" /><path
         id="path342"
         fill="#5f0b01"
         d="m 916.4,0 h 2.93 c 2.54,62.92 1.39,128.22 1.73,192.09 -1.12,-0.03 -2.22,-0.04 -3.31,-0.03 -1.41,-0.87 -2.8,-1.78 -4.05,-2.85 -1.29,-60.93 3.93,-123.67 -2.49,-184.84 3.44,-0.71 1.62,5.96 2.25,7.79 C 914.37,8.19 912.48,2.75 916.4,0 Z" /><path
         id="path344"
         fill="#5f0801"
         d="m 919.33,0 h 7.88 c 1.76,63.23 0.98,127.66 0.11,191.3 -1.35,2.11 -4.23,0.61 -6.26,0.79 C 920.72,128.22 921.87,62.92 919.33,0 Z" /><path
         id="path346"
         fill="#5d0402"
         d="m 927.21,0 h 3.88 c -2.6,9.93 2.9,18.55 -0.01,28.3 -0.07,0.63 -0.22,1.87 -0.29,2.49 3.62,54.52 -1.26,110.03 1.91,162.27 -0.86,0.28 -1.71,0.57 -2.55,0.86 -0.95,-0.87 -1.9,-1.74 -2.83,-2.62 0.87,-63.64 1.65,-128.07 -0.11,-191.3 z" /><path
         id="path348"
         fill="#5c0101"
         d="m 931.09,0 h 28.86 c -3.01,7.84 -17.69,3.56 -14.45,14.09 -2.78,8.5 12.17,12.28 5.35,20.54 1.44,50.55 -2.47,101.54 2.16,152.06 1,4.11 -5.59,3.62 -5.43,7.1 0.6,9.29 -10.39,0.68 -14.88,-0.73 -3.17,-52.24 1.71,-107.75 -1.91,-162.27 1.74,1.57 5.16,2.28 4.99,5.11 0.58,39.56 0,79.14 0.22,118.71 6.17,9.13 2.52,23.76 3.04,35.94 4.41,4.52 11.31,-1.43 8.99,-6.99 -0.24,-49.39 0.38,-98.87 -0.36,-148.22 8.27,-11.39 -10.84,-14.37 -16.59,-7.04 2.91,-9.75 -2.59,-18.37 0.01,-28.3 z" /><path
         id="path350"
         fill="#580000"
         d="m 959.95,0 h 0.93 c -0.87,6.81 -9.34,10.69 -7.05,18.23 3.92,6.38 7.28,13.36 6.99,21.09 0.28,49.33 0.35,98.74 -0.01,148.04 -4.76,3.25 -9.87,6.6 -10.94,12.64 h -15.15 c -1.69,-1.9 -3.14,-3.99 -4.57,-6.08 0.84,-0.29 1.69,-0.58 2.55,-0.86 4.49,1.41 15.48,10.02 14.88,0.73 -0.16,-3.48 6.43,-2.99 5.43,-7.1 C 948.38,136.17 952.29,85.18 950.85,34.63 957.67,26.37 942.72,22.59 945.5,14.09 942.26,3.56 956.94,7.84 959.95,0 Z" /><path
         id="path352"
         fill="#550000"
         d="m 960.88,0 h 6.39 c -10.28,3.19 8.73,7.55 6.16,14.41 -2.64,5.53 -4.49,12.64 -11.58,13.32 -3.29,4.79 6.2,4.65 5.8,9.06 0.62,50.48 0.52,101.07 0.07,151.54 -5.26,3.87 -14.4,2.83 -14.11,11.67 h -3.74 c 1.07,-6.04 6.18,-9.39 10.94,-12.64 0.36,-49.3 0.29,-98.71 0.01,-148.04 0.29,-7.73 -3.07,-14.71 -6.99,-21.09 -2.29,-7.54 6.18,-11.42 7.05,-18.23 z" /><path
         id="path354"
         fill="#520100"
         d="m 967.27,0 h 2.56 c -0.39,7.5 12.03,5.2 9.18,13.65 -3.09,6.26 -13.29,13.76 -5.41,20.32 0.97,51.83 0.08,103.72 0.44,155.57 -3.56,7.6 -18.34,-0.38 -14.57,10.46 h -5.86 c -0.29,-8.84 8.85,-7.8 14.11,-11.67 0.45,-50.47 0.55,-101.06 -0.07,-151.54 0.4,-4.41 -9.09,-4.27 -5.8,-9.06 7.09,-0.68 8.94,-7.79 11.58,-13.32 C 976,7.55 956.99,3.19 967.27,0 Z" /><path
         id="path356"
         fill="#4f0100"
         d="m 969.83,0 h 3.54 c 10.48,2.13 14.99,18.87 7.37,25.35 -9.49,0.36 -3.47,7.69 2.2,8.92 2.35,51.45 0.65,103.5 0.85,155.14 -4.21,3.29 -4.17,6.79 -0.27,10.59 h -24.05 c -3.77,-10.84 11.01,-2.86 14.57,-10.46 -0.36,-51.85 0.53,-103.74 -0.44,-155.57 -7.88,-6.56 2.32,-14.06 5.41,-20.32 C 981.86,5.2 969.44,7.5 969.83,0 Z" /><path
         id="path358"
         fill="#4b0000"
         d="m 973.37,0 h 13.31 c -0.4,9.8 12.23,6.06 18.12,9.86 -1.5,9.53 -16.9,2.55 -13.96,14.38 -8.02,0.53 -7.91,7.85 0.43,8.75 0.02,55.45 3.41,111.79 -1.26,167.01 h -6.49 c -3.9,-3.8 -3.94,-7.3 0.27,-10.59 -0.2,-51.64 1.5,-103.69 -0.85,-155.14 -5.67,-1.23 -11.69,-8.56 -2.2,-8.92 7.62,-6.48 3.11,-23.22 -7.37,-25.35 z" /><path
         id="path360"
         fill="#480101"
         d="m 986.68,0 h 6.66 c -1.64,4.07 8.86,2.96 11.36,4.95 3,2.78 13.2,3.4 10.4,9.16 -5.8,-3.05 -21.87,2.24 -17.11,11.96 2.41,55.74 0.24,111.71 1.06,167.53 6.25,-1.21 12.55,0.69 15.75,6.4 h -24.79 c 4.67,-55.22 1.28,-111.56 1.26,-167.01 -8.34,-0.9 -8.45,-8.22 -0.43,-8.75 C 987.9,12.41 1003.3,19.39 1004.8,9.86 998.91,6.06 986.28,9.8 986.68,0 Z" /><path
         id="path362"
         fill="#400100"
         d="m 993.34,0 h 9.66 c 8.8,5.58 19.9,3.97 28.4,10 -2.7,11.92 -16.7,3.96 -21.4,13 1.4,7.71 16.6,2.64 9.5,10.49 0.5,52.35 1.4,104.98 -0.3,157.32 6.2,-2.98 10.2,3.18 8.8,9.19 h -1 c 0.7,-10.04 -10.4,-3.11 -15.5,-10.56 0.8,-52.2 0.8,-104.51 0.1,-156.73 0.4,-5.62 -6.7,-5.54 -8.8,-9.71 5,-8.43 19.6,-4.47 23.1,-13.71 -7.6,1.37 -13.6,-6.31 -21.2,-4.34 -2.5,-1.99 -13,-0.88 -11.36,-4.95 z" /><path
         id="path364"
         fill="#3d0000"
         d="m 1003,0 h 9.8 c 9,2.85 17,7.9 26.1,9.48 -0.4,6.13 -10.3,2.84 -11.4,9.36 4.7,59.91 2.7,120.91 1.4,181.16 h -0.9 c 1.4,-6.01 -2.6,-12.17 -8.8,-9.19 1.7,-52.34 0.8,-104.97 0.3,-157.32 7.1,-7.85 -8.1,-2.78 -9.5,-10.49 4.7,-9.04 18.7,-1.08 21.4,-13 -8.5,-6.03 -19.6,-4.42 -28.4,-10 z" /><path
         id="path366"
         fill="#390101"
         d="m 1012.8,0 h 31.2 c -3.3,64.02 0.9,128.93 -1.6,193.22 -1.1,-59.04 0.4,-118.15 -1.1,-177.16 -3.6,2.47 -10.2,-0.97 -11.9,3.63 -3.2,5.36 5.6,8.24 2.6,13.12 -1.5,55.51 3,111.76 -2.2,167.19 h -0.9 c 1.3,-60.25 3.3,-121.25 -1.4,-181.16 1.1,-6.52 11,-3.23 11.4,-9.36 C 1029.8,7.9 1021.8,2.85 1012.8,0 Z" /><path
         id="path368"
         fill="#410000"
         d="m 1044,0 h 1 c -0.1,0.73 -0.2,2.18 -0.2,2.9 -1.8,65.65 -0.2,131.41 -0.8,197.1 h -2.1 c 0.1,-1.7 0.3,-5.09 0.5,-6.78 2.5,-64.29 -1.7,-129.2 1.6,-193.22 z" /><path
         id="path370"
         fill="#560103"
         d="m 1045,0 h 1 v 200 h -1 c -0.1,-65.7 0.3,-131.4 -0.2,-197.1 0,-0.72 0.1,-2.17 0.2,-2.9 z" /><path
         id="path372"
         fill="#660409"
         d="m 1046,0 h 1 v 200 h -1 z" /><path
         id="path374"
         fill="#7b0813"
         d="m 1047,0 h 1 c -0.3,64.03 0.6,128.09 -0.5,192.11 0.7,-0.24 2.1,-0.72 2.9,-0.95 l 0.9,-0.25 c -0.1,3.01 -0.1,6.06 -0.2,9.09 h -4.1 z" /><path
         id="path376"
         fill="#890918"
         d="m 1048,0 h 3 c -0.1,4.26 -0.1,8.51 -0.2,12.77 -1.6,59.4 -0.7,118.95 -0.4,178.39 -0.8,0.23 -2.2,0.71 -2.9,0.95 1.1,-64.02 0.2,-128.08 0.5,-192.11 z" /><path
         id="path378"
         fill="#70030c"
         d="m 1051,0 h 1 c 0,66.67 -0.1,133.33 0.1,200 h -1 c 0.1,-3.03 0.1,-6.08 0.2,-9.09 -0.8,-59.37 0.1,-118.76 -0.5,-178.14 0.1,-4.26 0.1,-8.51 0.2,-12.77 z" /><path
         id="path380"
         fill="#560105"
         d="m 1052,0 h 1 c 0,66.67 -0.1,133.33 0.1,200 h -1 C 1051.9,133.33 1052,66.67 1052,0 Z" /><path
         id="path382"
         fill="#440001"
         d="m 1053,0 h 1 c 1.1,66.6 -1.8,133.44 1,200 h -1.9 C 1052.9,133.33 1053,66.67 1053,0 Z" /><path
         id="path384"
         fill="#3a0000"
         d="m 1054,0 h 0.9 c 1.3,66.57 -1.6,133.4 1.1,200 h -1 c -2.8,-66.56 0.1,-133.4 -1,-200 z" /><path
         id="path386"
         fill="#320000"
         d="m 1054.9,0 h 1 c 1.5,66.08 -1.2,133.5 1.1,200 h -1 c -2.7,-66.6 0.2,-133.43 -1.1,-200 z" /><path
         id="path388"
         fill="#2d0002"
         d="m 1055.9,0 h 7.6 c -1.7,10.93 3.3,26.02 -6,32.96 -1.1,42.09 -0.3,84.28 -0.4,126.38 11.8,6.89 6.8,26.91 0.8,35.02 -0.1,1.87 0,3.76 0,5.64 h -0.9 c -2.3,-66.5 0.4,-133.92 -1.1,-200 z" /><path
         id="path390"
         fill="#2a0102"
         d="m 1063.5,0 h 0.9 c 4.3,-0.49 6.8,4.44 1.2,2.02 -2.6,61.04 -2,122.51 -0.5,183.68 0.9,5.05 -5.9,4.51 -7.2,8.66 6,-8.11 11,-28.13 -0.8,-35.02 0.1,-42.1 -0.7,-84.29 0.4,-126.38 9.3,-6.94 4.3,-22.03 6,-32.96 z" /><path
         id="path392"
         fill="#280001"
         d="m 1064.4,0 h 10.3 c 2.9,61.61 3.3,123.63 0.7,185.26 -0.6,5.15 2.6,9.7 3.1,14.74 h -20.6 c 0,-1.88 -0.1,-3.77 0,-5.64 1.3,-4.15 8.1,-3.61 7.2,-8.66 -1.5,-61.17 -2.1,-122.64 0.5,-183.68 5.6,2.42 3.1,-2.51 -1.2,-2.02 z" /><path
         id="path394"
         fill="#230000"
         d="m 1074.7,0 h 11.1 c 4.2,64.03 2.1,128.54 1.4,192.7 3.7,1.17 8,1.73 6.4,7.3 h -15.1 c -0.5,-5.04 -3.7,-9.59 -3.1,-14.74 2.6,-61.63 2.2,-123.65 -0.7,-185.26 z" /><path
         id="path396"
         fill="#1b0000"
         d="m 1085.8,0 h 14.2 c 1.5,63.14 1.6,126.41 0.2,189.54 2.9,3.09 7,5.77 7.2,10.46 h -13.8 c 1.6,-5.57 -2.7,-6.13 -6.4,-7.3 0.7,-64.16 2.8,-128.67 -1.4,-192.7 z" /><path
         id="path398"
         fill="#180100"
         d="m 1100,0 h 4 c 1.9,63.21 0.8,127.22 0.8,190.05 3.1,2.31 3.1,6.37 3.5,9.95 h -0.9 c -0.2,-4.69 -4.3,-7.37 -7.2,-10.46 1.4,-63.13 1.3,-126.4 -0.2,-189.54 z" /><path
         id="path400"
         fill="#160101"
         d="m 1104,0 h 8.1 c 2.4,5.58 -5.1,13.34 0.6,17.12 0.9,60.94 -0.1,121.93 0.4,182.88 h -4.8 c -0.4,-3.58 -0.4,-7.64 -3.5,-9.95 0,-62.83 1.1,-126.84 -0.8,-190.05 z" /><path
         id="path402"
         fill="#130000"
         d="m 1112.1,0 h 6.9 c -0.2,63.75 0.4,127.72 -0.3,191.35 1.8,2.62 3.6,5.31 3.8,8.65 h -9.4 c -0.5,-60.95 0.5,-121.94 -0.4,-182.88 -5.7,-3.78 1.8,-11.54 -0.6,-17.12 z" /><path
         id="path404"
         fill="#100000"
         d="m 1119,0 h 11.1 c -8,11.63 10.9,26.13 -3.8,32.5 -1.6,52.56 1.4,106.53 -1.3,159.5 5.8,-2.97 8.3,2.38 7.5,8 h -10 c -0.2,-3.34 -2,-6.03 -3.8,-8.65 0.7,-63.63 0.1,-127.6 0.3,-191.35 z" /><path
         id="path406"
         fill="#0c0100"
         d="m 1130.1,0 h 6.9 c -4.6,62.83 0.1,126.54 -2.9,189.65 3,3.05 7.7,4.76 6.3,10.35 h -7.9 c 0.8,-5.62 -1.7,-10.97 -7.5,-8 2.7,-52.97 -0.3,-106.94 1.3,-159.5 14.7,-6.37 -4.2,-20.87 3.8,-32.5 z" /><path
         id="path408"
         fill="#090000"
         d="m 1137,0 h 3 c 0.8,62.09 4,124.52 1.1,186.85 -3.2,5.49 6.1,6.23 3.1,13.15 h -3.8 c 1.4,-5.59 -3.3,-7.3 -6.3,-10.35 3,-63.11 -1.7,-126.82 2.9,-189.65 z" /><path
         id="path410"
         fill="#050000"
         d="m 1140,0 h 10.1 c 1.5,10.32 -4.2,22.81 1.6,32.07 1.4,55.94 -1.3,112.04 1.3,167.93 h -8.8 c 3,-6.92 -6.3,-7.66 -3.1,-13.15 C 1144,124.52 1140.8,62.09 1140,0 Z" /><path
         id="path412"
         fill="#020101"
         d="m 1150.1,0 h 10.9 c 2.1,13.37 -5.4,26.49 -2.1,39.63 0.5,51.74 -0.6,103.51 0.6,155.23 -6.8,-3.92 -5.7,-1.82 -4.5,5.14 h -2 c -2.6,-55.89 0.1,-111.99 -1.3,-167.93 -5.8,-9.26 -0.1,-21.75 -1.6,-32.07 z" /><path
         id="path414"
         d="m 1161,0 h 39 v 200 h -45 c -1.2,-6.96 -2.3,-9.06 4.5,-5.14 -1.2,-51.72 -0.1,-103.49 -0.6,-155.23 -3.3,-13.14 4.2,-26.26 2.1,-39.63 z" /><path
         id="path416"
         fill="#005c72"
         d="m 447.28,9.24 c -2.42,-4.65 2.58,-6.07 5.07,-8.32 1.73,62.75 -0.24,125.57 0.99,188.32 -0.16,2.72 2.02,3.83 4.41,3.78 2.28,1.7 3.37,4.26 3.94,6.98 h -11.16 c -0.64,-2.17 -1.11,-4.41 -2.19,-6.41 -3.35,-4.28 -1.18,-9.73 -1.38,-14.61 -0.01,-56.58 0.07,-113.19 0.32,-169.74 z" /><path
         id="path418"
         fill="#020150"
         d="m 140.9,1.58 c 5.68,1.69 2.23,8.45 2.72,12.8 2.68,58.34 0.81,116.92 1.42,175.36 0.35,2.95 -4.38,3.52 -4.99,0.78 C 140.2,127.59 139.34,64.1 140.9,1.58 Z" /><path
         id="path420"
         fill="#0909a8"
         d="m 248.95,16.33 c -1.1,-4.82 -0.24,-9.7 0.98,-14.41 -0.19,63.39 0.72,126.83 -0.43,190.18 -0.52,5.14 -4.07,2.41 -3.93,-1.39 l 0.16,-0.96 0.92,0.36 c 0.71,0.23 2.13,0.7 2.84,0.93 -1.17,-58.22 -0.08,-116.5 -0.54,-174.71 z" /><path
         id="path422"
         fill="#011a75"
         d="m 300.22,1.88 c 2.31,1.63 4.61,3.29 6.85,5.04 -0.39,2.56 0.14,5.09 0.64,7.59 -4.57,2.19 -15.3,7.02 -7.67,12.37 4.54,2.37 1.15,4.59 -0.5,7.63 1.06,50.71 0.07,101.51 0.59,152.26 0.31,5.01 -5.18,7.99 -4.54,13.23 h -7.01 c 3.25,-8.03 5.93,-18.76 2.45,-28.31 1.96,-49.86 -4.12,-102.96 3.06,-151.29 -7.17,-6.9 -2.24,-15.36 6.13,-18.52 z" /><path
         id="path424"
         fill="#5d4100"
         d="m 792.7,1.84 c 1.85,3.72 3.7,0.46 6.41,0.53 1.43,8.62 5,17.23 2.74,26.04 0.5,53.59 -0.04,107.36 -0.38,160.87 -2.42,2.65 -6.98,2.5 -9.67,5.13 3.73,-5.59 8.53,-12.44 3.2,-18.98 2.2,-43.97 0.48,-90.25 0.97,-135.03 2.6,-5.99 -7.07,-8.63 -2.25,-13.86 7.01,-8.89 -4.87,-15.57 -1.02,-24.7 z" /><path
         id="path426"
         fill="#02096e"
         d="m 263.88,16.77 c -14.35,9.51 -7.65,-25.76 1.45,-8.47 1,2.94 -0.17,5.84 -1.45,8.47 z" /><path
         id="path428"
         fill="#002676"
         d="m 311.73,6.12 c 3.94,-1.52 8.06,-2.44 12.26,-2.98 3.6,1.83 7.24,3.91 9.81,7.1 -0.04,5.81 -11.55,9.79 -6.09,15.95 5.56,5.01 -4.11,10.08 -1.63,16.15 0.29,48.28 -1.03,96.63 0.7,144.88 1.95,7.37 -10.82,4.48 -5.9,12.78 h -10.49 c 0.58,-5.1 5.39,-7.23 9.33,-9.41 -2.71,-57.78 1.13,-116.83 -0.52,-173.94 4.71,0.93 9.21,-0.93 11.84,-4.8 -4.68,-6.7 -13.17,-2.59 -19.31,-5.73 z" /><path
         id="path430"
         fill="#024d89"
         d="m 391.25,2.86 c 1.3,62.79 1.25,126.13 -0.03,189.01 -0.34,-62.99 -0.41,-126.01 0.03,-189.01 z" /><path
         id="path432"
         fill="#4c0101"
         d="m 1044,200 c 0.6,-65.69 -1,-131.45 0.8,-197.1 0.5,65.7 0.1,131.4 0.2,197.1 z" /><path
         id="path434"
         fill="#000370"
         d="m 238.09,20.7 c -1.8,-5.33 -4.28,-15.53 3.05,-16.96 0.32,3.94 0.67,7.88 0.77,11.83 -2.83,58.1 0.48,117.49 -1.21,176.03 -1.56,0.14 -4.71,1.44 -3.49,-1.36 2.15,-56.41 -0.27,-113.29 0.88,-169.54 z" /><path
         id="path436"
         fill="#000f7c"
         d="m 267.3,3.55 c 6.8,4.1 2.04,12.1 0.18,17.79 0.81,52.78 1.14,105.72 -0.6,158.52 0.48,4.67 -1.6,11.47 4.1,13.48 -0.3,1.33 -0.61,2.65 -0.9,3.99 -7.32,-1.88 -3.96,-12.21 -5.2,-17.35 2.87,-58.66 -0.7,-118.71 2.42,-176.43 z" /><path
         id="path438"
         fill="#430001"
         d="m 1004.7,4.95 c 7.6,-1.97 13.6,5.71 21.2,4.34 -3.5,9.24 -18.1,5.28 -23.1,13.71 2.1,4.17 9.2,4.09 8.8,9.71 0.7,52.22 0.7,104.53 -0.1,156.73 5.1,7.45 16.2,0.52 15.5,10.56 h -8.4 c 1.2,-3.89 -7.4,-8.75 -13.4,-10.28 1.6,-49.44 0.6,-98.99 0.6,-148.47 -0.1,-6.15 -0.4,-12.73 -4.6,-17.55 0.1,-6.55 8.8,-8.33 13.9,-9.59 2.8,-5.76 -7.4,-6.38 -10.4,-9.16 z" /><path
         id="path440"
         fill="#063980"
         d="m 348.59,200 c 6.75,-64.34 -0.97,-130.72 3.24,-194.97 -0.57,64.96 1.98,130.16 -1.24,194.97 z" /><path
         id="path442"
         fill="#00227a"
         d="m 307.07,6.92 c 1.55,-0.26 3.1,-0.53 4.66,-0.8 6.14,3.14 14.63,-0.97 19.31,5.73 -2.63,3.87 -7.13,5.73 -11.84,4.8 -2.74,-0.55 -5.43,-1.26 -8.17,-1.72 -1.02,0.36 -2.03,0.74 -3.02,1.14 -0.07,-0.39 -0.22,-1.17 -0.3,-1.56 -0.5,-2.5 -1.03,-5.03 -0.64,-7.59 z" /><path
         id="path444"
         fill="#050260"
         d="m 122.17,6.67 c 4.33,60.72 0.57,122.82 1.83,184.03 -0.25,6.68 -7.01,-2.53 -4.06,-5.05 1.65,-59.53 -2.97,-119.94 2.23,-178.98 z" /><path
         id="path446"
         fill="#450000"
         d="m 997.99,26.07 c -4.76,-9.72 11.31,-15.01 17.11,-11.96 -5.1,1.26 -13.8,3.04 -13.9,9.59 4.2,4.82 4.5,11.4 4.6,17.55 0,49.48 1,99.03 -0.6,148.47 6,1.53 14.6,6.39 13.4,10.28 h -3.8 c -3.2,-5.71 -9.5,-7.61 -15.75,-6.4 -0.82,-55.82 1.35,-111.79 -1.06,-167.53 z" /><path
         id="path448"
         fill="#000079"
         d="m 231.85,17 c 1.59,-7 5.58,-1.76 4.63,3.37 -1.17,57.01 0.04,114.13 -0.66,171.18 -6.9,1.76 -2.22,-13.05 -4.08,-16.66 0.7,-52.62 0.05,-105.3 0.11,-157.89 z" /><path
         id="path450"
         fill="#002d72"
         d="m 333.15,27.34 c -3.07,-5.76 1.29,-12.4 6.77,-14.64 0.67,1.01 1.34,2.03 2,3.05 -1.32,2.24 -2.89,4.57 -2.68,7.29 2.6,54.7 -1.62,109.67 2.45,164.25 1.2,6.36 -10.16,5.28 -6.95,12.71 h -5.88 c -0.28,-6.37 6.75,-10.54 3.58,-17.42 -0.33,-51.69 -1.6,-103.66 0.71,-155.24 z" /><path
         id="path452"
         fill="#830715"
         d="m 1050.4,191.16 c -0.3,-59.44 -1.2,-118.99 0.4,-178.39 0.6,59.38 -0.3,118.77 0.5,178.14 z" /><path
         id="path454"
         fill="#02168a"
         d="m 274.36,14.4 c 1.37,-1.02 2.78,2.93 3.12,4.37 0.99,56.81 0.23,113.75 0.65,170.61 -1.32,2.22 -6.59,4.53 -5.71,0.08 C 271.73,135.8 271.64,82 272.55,28.35 270.99,23.69 271.23,18.34 274.36,14.4 Z" /><path
         id="path456"
         fill="#010048"
         d="m 114.97,200 c 5.8,-61.21 -0.83,-123.64 2.88,-185.18 0.96,61.72 -1.2,123.51 1.1,185.18 z" /><path
         id="path458"
         fill="#0d0bb3"
         d="m 246.66,19.85 c -1.39,-4.67 -0.63,-5.84 2.29,-3.52 0.46,58.21 -0.63,116.49 0.54,174.71 -0.71,-0.23 -2.13,-0.7 -2.84,-0.93 0.62,-56.73 0.54,-113.52 0.01,-170.26 z" /><path
         id="path460"
         fill="#000487"
         d="m 252.15,14.68 c 2.03,61.56 0.32,123.59 0.77,185.32 h -2.96 c 0.46,-2.69 0.97,-5.35 1.23,-8.07 2.01,-58.97 0.06,-118.18 0.96,-177.25 z" /><path
         id="path462"
         fill="#011d73"
         d="m 300.04,26.88 c -7.63,-5.35 3.1,-10.18 7.67,-12.37 0.08,0.39 0.23,1.17 0.3,1.56 -0.07,58.07 -0.24,116.71 0.32,174.54 -4.4,2.49 -12.31,1.11 -9.77,9.39 h -2.97 c -0.64,-5.24 4.85,-8.22 4.54,-13.23 -0.52,-50.75 0.47,-101.55 -0.59,-152.26 1.65,-3.04 5.04,-5.26 0.5,-7.63 z" /><path
         id="path464"
         fill="#002073"
         d="m 308.01,16.07 c 0.99,-0.4 2,-0.78 3.02,-1.14 3.54,56.39 -1.17,115.29 1.6,172.37 1.94,5.73 -9.82,5.7 -6.08,12.7 h -7.99 c -2.54,-8.28 5.37,-6.9 9.77,-9.39 -0.56,-57.83 -0.39,-116.47 -0.32,-174.54 z" /><path
         id="path466"
         fill="#002375"
         d="m 311.03,14.93 c 2.74,0.46 5.43,1.17 8.17,1.72 1.65,57.11 -2.19,116.16 0.52,173.94 -3.94,2.18 -8.75,4.31 -9.33,9.41 h -3.84 c -3.74,-7 8.02,-6.97 6.08,-12.7 -2.77,-57.08 1.94,-115.98 -1.6,-172.37 z" /><path
         id="path468"
         fill="#014381"
         d="m 383.78,200 c 1.08,-61.71 -1.05,-123.53 1.05,-185.2 0.9,59.43 -0.96,118.94 0.94,178.32 0.03,1.72 0.08,5.16 0.11,6.88 z" /><path
         id="path470"
         fill="#5e2400"
         d="m 856.17,14.71 c 5.66,0.03 10.31,5.58 7.08,11.16 -5.51,5.57 5.6,10.74 2.86,17.35 -1.57,49.52 2.58,99.55 -2.02,148.76 -2.01,0.95 -4.04,1.97 -6.28,2.18 C 855,134.45 859.13,74.37 856.17,14.71 Z" /><path
         id="path472"
         fill="#003072"
         d="m 339.24,23.04 c -0.21,-2.72 1.36,-5.05 2.68,-7.29 6.94,1.61 7.22,9.99 1.89,13.72 1.02,48.11 -0.67,97.74 0.6,146.32 -1.96,8.14 3.54,16.54 -0.63,24.21 h -9.04 c -3.21,-7.43 8.15,-6.35 6.95,-12.71 -4.07,-54.58 0.15,-109.55 -2.45,-164.25 z" /><path
         id="path474"
         fill="#2ff045"
         d="m 581.72,15.81 c 1.19,0.51 2.41,0.94 3.67,1.31 -0.09,4.88 -0.46,9.74 -0.63,14.61 -3.24,53.64 2.56,108.58 -2.7,161.66 C 581.75,134.2 582.39,75 581.72,15.81 Z" /><path
         id="path476"
         fill="#360101"
         d="m 1029.4,19.69 c 1.7,-4.6 8.3,-1.16 11.9,-3.63 1.5,59.01 0,118.12 1.1,177.16 -0.2,1.69 -0.4,5.08 -0.5,6.78 h -12.1 c 5.2,-55.43 0.7,-111.68 2.2,-167.19 3,-4.88 -5.8,-7.76 -2.6,-13.12 z" /><path
         id="path478"
         fill="#000879"
         d="m 254.14,16.81 c 2.76,60.36 -0.22,122.31 0.8,183.19 h -1.01 c 0.25,-61.06 -0.16,-122.13 0.21,-183.19 z" /><path
         id="path480"
         fill="#5a3602"
         d="m 829,16.73 c 4.04,0.33 1.84,6.59 2.9,8.71 0.19,55.06 0.15,110.14 0,165.2 -0.83,5.58 -4.51,0 -3.87,-3.05 0.54,-56.94 -1.3,-113.97 0.97,-170.86 z" /><path
         id="path482"
         fill="#030133"
         d="m 67.46,24.51 c 0.85,-8.54 5.3,2.12 4.49,5.54 4.23,56.41 -2.58,113.77 2.26,169.95 H 69.1 C 65.13,141.88 70.07,82.9 67.46,24.51 Z" /><path
         id="path484"
         fill="#0d418a"
         d="m 353.12,21.67 c 4.37,53.94 0.68,113.31 1.83,169.32 h -1.99 c 0,-56.38 0.08,-113.14 0.16,-169.32 z" /><path
         id="path486"
         fill="#602d01"
         d="m 834.61,27.28 c 3.06,-0.85 5.75,-2.48 8.34,-4.3 1.77,55.4 1,111.42 0.68,167.01 -0.51,1.68 -2.38,2.43 -3.54,3.62 -1.58,-0.7 -3.15,-1.39 -4.77,-1.94 -0.41,-0.15 -1.24,-0.44 -1.65,-0.59 3.05,-53.91 0.75,-110.31 0.94,-163.8 z" /><path
         id="path488"
         fill="#5f1f02"
         d="m 875.28,34.77 c -1.78,-4.3 -1.31,-12.02 4.99,-11.25 -0.43,55.56 -0.42,111.13 -0.06,166.68 -1.25,0.61 -3.83,3.31 -4.04,0.41 -0.94,-51.91 0.96,-103.97 -0.89,-155.84 z" /><path
         id="path490"
         fill="#065c01"
         d="m 592.08,25.12 c 4.66,-3.64 1.23,3.61 -0.05,5.91 2.4,-1.75 7.14,-2.46 7.19,1.75 -5.44,0.52 -2.16,7.93 -3.27,11.31 0.25,48.5 -0.41,97.05 0.72,145.49 -1.04,1.95 -4.11,1.51 -6.03,2.2 1.62,-55.5 -1.39,-111.33 1.44,-166.66 z" /><path
         id="path492"
         fill="#5e0001"
         d="m 931.08,28.3 c 5.75,-7.33 24.86,-4.35 16.59,7.04 0.74,49.35 0.12,98.83 0.36,148.22 2.32,5.56 -4.58,11.51 -8.99,6.99 -0.52,-12.18 3.13,-26.81 -3.04,-35.94 -0.22,-39.57 0.36,-79.15 -0.22,-118.71 0.17,-2.83 -3.25,-3.54 -4.99,-5.11 0.07,-0.62 0.22,-1.86 0.29,-2.49 z" /><path
         id="path494"
         fill="#00013c"
         d="m 130.1,28.92 c 1.73,-0.85 1.93,2.65 2.67,3.77 1,51.69 -0.87,103.54 1.02,155.16 0.45,2.34 -4.13,5.1 -4.62,1.67 0.49,-53.46 -1.74,-107.42 0.93,-160.6 z" /><path
         id="path496"
         fill="#00011b"
         d="m 81.51,31.04 c 3.59,49.65 0.34,104.98 1.58,156.77 0.82,6.26 -10.57,3.09 -6.15,-3.06 C 78.21,136.9 78.18,89 77.92,41.09 78.05,37.93 76.95,31.84 81.51,31.04 Z" /><path
         id="path498"
         fill="#31ec48"
         d="m 582.06,193.39 c 5.26,-53.08 -0.54,-108.02 2.7,-161.66 0.52,56.09 0.14,112.18 0.2,168.27 h -3.05 c 0.04,-1.65 0.11,-4.95 0.15,-6.61 z" /><path
         id="path500"
         fill="#055c05"
         d="m 595.95,44.09 c 1.11,-3.38 -2.17,-10.79 3.27,-11.31 1.95,52.9 0.11,106.26 0.79,159.09 -1.54,2.45 -1.98,5.28 -2.24,8.13 h -0.92 c 3.99,-10.18 -9.65,-10.21 -5.89,0 h -0.95 c 0.19,-2.74 0.38,-5.5 0.63,-8.22 1.92,-0.69 4.99,-0.25 6.03,-2.2 -1.13,-48.44 -0.47,-96.99 -0.72,-145.49 z" /><path
         id="path502"
         fill="#000c6c"
         d="m 255.94,200 c -1.65,-6.16 2.36,-14.17 7.02,-6.64 0.43,2.21 0.91,4.42 1.33,6.64 z" /><path
         id="path504"
         fill="#000001"
         d="m 20.62,191.04 c 0.31,0.17 0.95,0.51 1.27,0.68 -0.32,-0.17 -0.96,-0.51 -1.27,-0.68 z" /><path
         id="path506"
         fill="#000045"
         d="m 127.86,190.8 c 0.19,0.34 0.58,1 0.78,1.34 -0.2,-0.34 -0.59,-1 -0.78,-1.34 z" /><path
         id="path508"
         fill="#075a21"
         d="m 543.17,193.21 c 3.11,-0.2 5.98,-2.54 9.12,-1.32 0.06,0.41 0.17,1.23 0.22,1.64 0.17,1.62 0.51,4.85 0.68,6.47 h -16.71 c -0.44,-4.58 2.15,-7.09 6.69,-6.79 z" /><path
         id="path510"
         fill="#075917"
         d="m 560.94,200 c -0.69,-5.51 2.75,-11.69 9.31,-8.01 0.7,2.61 0.49,5.32 0.71,8.01 h -1.93 c 2.91,-10.23 -8.32,-10.09 -5.11,0 z" /><path
         id="path512"
         fill="#590a00"
         d="m 927.32,191.3 c 0.93,0.88 1.88,1.75 2.83,2.62 1.43,2.09 2.88,4.18 4.57,6.08 h -20.38 c -0.54,-1.34 -1.06,-2.69 -1.59,-4.02 1.64,-1.34 3.29,-2.67 5,-3.92 1.09,-0.01 2.19,0 3.31,0.03 2.03,-0.18 4.91,1.32 6.26,-0.79 z" /><path
         id="path514"
         fill="#010000"
         d="m 21.89,191.72 c 2.15,2.21 1.89,5.39 2.2,8.28 h -1.9 c -0.71,-2.72 -1,-5.53 -0.3,-8.28 z" /><path
         id="path516"
         fill="#0d5423"
         d="m 563.92,200 c -3.21,-10.09 8.02,-10.23 5.11,0 z" /><path
         id="path518"
         fill="#08570c"
         d="m 590.96,200 c -3.76,-10.21 9.88,-10.18 5.89,0 z" /><path
         id="path520"
         fill="#4b5b06"
         d="m 698.07,193.86 c 2.14,-0.36 4.2,-1.05 6.07,-2.17 2.73,0.43 6.04,2.17 8.3,-0.26 1.29,0.82 2.54,1.71 3.84,2.54 -1.32,2.04 -2.76,3.99 -4.07,6.03 h -15.33 c -0.69,-2.22 -2.06,-5.39 1.19,-6.14 z" /><path
         id="path522"
         fill="#555b0a"
         d="m 720.38,191.75 c 1.42,0.14 2.86,0.3 4.3,0.49 0.63,0.27 1.89,0.81 2.51,1.08 -0.14,1.67 -0.42,5.01 -0.57,6.68 h -14.41 c 1.31,-2.04 2.75,-3.99 4.07,-6.03 0.99,-0.26 1.95,-0.61 2.89,-1.04 0.3,-0.3 0.91,-0.89 1.21,-1.18 z" /><path
         id="path524"
         fill="#5e590b"
         d="m 727.19,193.32 c 0.28,-0.39 0.82,-1.17 1.09,-1.56 1.7,0.12 5.09,0.36 6.79,0.48 1.83,0.04 3.67,0 5.52,-0.03 2.15,0.41 4.26,1.04 6.32,1.82 0.58,1.97 1.07,3.97 1.58,5.97 h -21.87 c 0.15,-1.67 0.43,-5.01 0.57,-6.68 z" /><path
         id="path526"
         fill="#604a0a"
         d="m 765.46,200 c 1.3,-7.23 6.66,-10.33 13.79,-7.89 2.86,1.65 3.36,4.97 4.15,7.89 z" /><path
         id="path528"
         fill="#6c2c06"
         d="m 823,195.14 c 0.29,-3.53 2.43,-3.63 5.11,-2.01 0.45,2.27 0.61,4.58 0.91,6.87 h -6.01 c -0.03,-1.62 -0.05,-3.24 -0.01,-4.86 z" /><path
         id="path530"
         fill="#622d0d"
         d="m 831.92,200 c 0.54,-3.15 -0.82,-8 3.4,-8.33 1.62,0.55 3.19,1.24 4.77,1.94 -0.03,1.6 -0.1,4.79 -0.14,6.39 z" /><path
         id="path532"
         fill="#2a1e16"
         d="m 0.89,197.73 c 0.68,-1.65 2.77,-1.06 3.01,0.52 -0.52,-0.01 -1.57,-0.03 -2.09,-0.04 z" /><path
         id="path534"
         fill="#5c4630"
         d="m 0,198.08 0.89,-0.35 0.92,0.48 c 0.03,0.44 0.08,1.34 0.11,1.79 H 0 Z" /><path
         id="path536"
         fill="#7d7367"
         d="m 1.81,198.21 c 0.52,0.01 1.57,0.03 2.09,0.04 0.03,0.44 0.1,1.31 0.14,1.75 H 1.92 c -0.03,-0.45 -0.08,-1.35 -0.11,-1.79 z" /><path
         id="path538"
         fill="#323d42"
         d="m 3.9,198.25 0.81,0.02 C 4.78,198.7 4.92,199.57 5,200 H 4.04 C 4,199.56 3.93,198.69 3.9,198.25 Z" /><path
         id="path540"
         fill="#040e19"
         d="m 4.71,198.27 c 1.39,-0.53 3.23,0.04 3.37,1.73 H 5 c -0.08,-0.43 -0.22,-1.3 -0.29,-1.73 z" /></g><g
       id="layer2"
       inkscape:label="logo.svg"
       style="display:inline"
       transform="matrix(1.7285341,0,0,1.7285341,16.32779,8.2090243)"><g
         id="g3613"
         transform="matrix(1.0696952,0,0,1.0696952,-1.9682871,1.2767394)"><path
           sodipodi:nodetypes="cssssss"
           d="m 28.466519,15.480445 c -1.690444,-0.411311 -3.880242,0.0024 -6.862802,1.703057 -4.343818,2.477 -5.647804,4.7124 -10.531132,6.5262 -2.7416801,1.0184 -7.1725478,1.2727 -6.7296333,-1.9563 0.4055207,-2.9564 4.8746766,-5.683963 10.7473903,-5.268022 7.253753,0.513753 7.780294,2.643843 11.236758,2.445771 4.073631,-0.233438 3.02577,-3.235043 2.139419,-3.450706 z"
           style="fill:#ffffff;fill-opacity:1;stroke:#000000;stroke-width:1px;stroke-linecap:butt;stroke-linejoin:miter;stroke-opacity:1"
           id="path2822"
           inkscape:connector-curvature="0" /><path
           sodipodi:nodetypes="ccscsc"
           id="path2832"
           d="m 22.349625,16.595174 c -5.498466,2.959917 -4.603518,5.10607 -10.999048,3.821601 1.40216,-4.418086 4.962036,-16.95097 7.147841,-17.2692571 1.878431,-0.2735287 4.924495,4.2931483 4.924495,4.2931483 0,0 -3.661803,-2.9673231 -4.16688,-1.7046325 -0.593183,1.4829546 2.39459,8.4145833 3.093592,10.8591403 z"
           style="display:inline;fill:#ffffff;fill-opacity:1;stroke:#000000;stroke-width:1px;stroke-linecap:butt;stroke-linejoin:round;stroke-opacity:1"
           inkscape:connector-curvature="0" /><path
           sodipodi:nodetypes="ccc"
           id="path3611"
           d="m 22.074942,15.74979 c 1.515307,-0.313608 1.831341,-0.3546 3.377477,-0.485523 1.799175,-0.173029 3.187957,0.237433 3.187957,0.237433"
           style="fill:none;stroke:#000000;stroke-width:1px;stroke-linecap:round;stroke-linejoin:miter;stroke-opacity:1"
           inkscape:connector-curvature="0" /></g></g><g
       id="g5787"
       transform="matrix(0.23787299,-0.18011076,0.18011076,0.23787299,-17.34069,15.431796)"><rect
         style="opacity:1;fill:#1152c0;fill-opacity:1;stroke:#000000;stroke-width:0.265;stroke-miterlimit:4;stroke-dasharray:none;stroke-dashoffset:0;stroke-opacity:1"
         id="rect5744"
         width="9.3544331"
         height="29.533283"
         x="87.798042"
         y="132.09471"
         rx="2.2" /><rect
         style="opacity:1;fill:#1152c0;fill-opacity:1;stroke:#000000;stroke-width:0.265;stroke-miterlimit:4;stroke-dasharray:none;stroke-dashoffset:0;stroke-opacity:1"
         id="rect5746"
         width="9.3544331"
         height="29.533283"
         x="87.798042"
         y="102.56143"
         rx="2.2" /><rect
         rx="2.2"
         y="132.09471"
         x="100.49873"
         height="29.533283"
         width="9.3544331"
         id="rect5742"
         style="opacity:1;fill:#1152c0;fill-opacity:1;stroke:#000000;stroke-width:0.265;stroke-miterlimit:4;stroke-dasharray:none;stroke-dashoffset:0;stroke-opacity:1" /><rect
         style="opacity:1;fill:#1152c0;fill-opacity:1;stroke:#000000;stroke-width:0.265;stroke-miterlimit:4;stroke-dasharray:none;stroke-dashoffset:0;stroke-opacity:1"
         id="rect5748"
         width="9.3544331"
         height="29.533283"
         x="100.49873"
         y="102.56143"
         rx="2.2" /><rect
         style="opacity:1;fill:#1152c0;fill-opacity:1;stroke:#000000;stroke-width:0.265;stroke-miterlimit:4;stroke-dasharray:none;stroke-dashoffset:0;stroke-opacity:1"
         id="rect5752"
         width="9.3544331"
         height="29.533283"
         x="137.90814"
         y="-29.911764"
         rx="2.2"
         transform="rotate(40.772852)" /><rect
         style="opacity:1;fill:#f4b744;fill-opacity:1;stroke:#000000;stroke-width:0.265;stroke-miterlimit:4;stroke-dasharray:none;stroke-dashoffset:0;stroke-opacity:1"
         id="rect5754"
         width="9.3544331"
         height="29.533283"
         x="137.90814"
         y="-59.445045"
         rx="2.2"
         transform="rotate(40.772852)" /><rect
         style="opacity:1;fill:#5390f8;fill-opacity:1;stroke:#000000;stroke-width:0.265;stroke-miterlimit:4;stroke-dasharray:none;stroke-dashoffset:0;stroke-opacity:1"
         id="rect5756"
         width="9.3544331"
         height="29.533283"
         x="150.40315"
         y="-29.74625"
         rx="2.2"
         transform="rotate(40.772852)" /><rect
         style="opacity:1;fill:#f0c87c;fill-opacity:1;stroke:#000000;stroke-width:0.265;stroke-miterlimit:4;stroke-dasharray:none;stroke-dashoffset:0;stroke-opacity:1"
         id="rect5758"
         width="9.3544331"
         height="29.533283"
         x="150.40315"
         y="-59.279533"
         rx="2.2"
         transform="rotate(40.772852)" /><rect
         style="opacity:1;fill:#1152c0;fill-opacity:1;stroke:#000000;stroke-width:0.265;stroke-miterlimit:4;stroke-dasharray:none;stroke-dashoffset:0;stroke-opacity:1"
         id="rect5760"
         width="9.3544331"
         height="29.533283"
         x="-11.851435"
         y="98.880539"
         rx="2.2"
         transform="matrix(-0.75730458,0.65306185,0.65306185,0.75730458,0,0)" /><rect
         style="opacity:1;fill:#f4b744;fill-opacity:1;stroke:#000000;stroke-width:0.265;stroke-miterlimit:4;stroke-dasharray:none;stroke-dashoffset:0;stroke-opacity:1"
         id="rect5762"
         width="9.3544331"
         height="29.533283"
         x="-11.851435"
         y="69.34726"
         rx="2.2"
         transform="matrix(-0.75730458,0.65306185,0.65306185,0.75730458,0,0)" /><rect
         style="opacity:1;fill:#5390f8;fill-opacity:1;stroke:#000000;stroke-width:0.265;stroke-miterlimit:4;stroke-dasharray:none;stroke-dashoffset:0;stroke-opacity:1"
         id="rect5764"
         width="9.3544331"
         height="29.533283"
         x="0.85990459"
         y="98.683037"
         rx="2.2"
         transform="matrix(-0.75730458,0.65306185,0.65306185,0.75730458,0,0)" /><rect
         transform="matrix(-0.75730458,0.65306185,0.65306185,0.75730458,0,0)"
         rx="2.2"
         y="69.149757"
         x="0.85990459"
         height="29.533283"
         width="9.3544331"
         id="rect5750"
         style="opacity:1;fill:#f0c87c;fill-opacity:1;stroke:#000000;stroke-width:0.265;stroke-miterlimit:4;stroke-dasharray:none;stroke-dashoffset:0;stroke-opacity:1" /><path
         inkscape:connector-curvature="0"
         id="path5766"
         d="m 80.514943,94.409695 2.372019,-2.037929 0.734991,0.868627 -2.438834,2.171565 -0.7684,-0.868627 z"
         style="fill:#000000;fill-opacity:1;stroke:#000000;stroke-width:0.264583px;stroke-linecap:butt;stroke-linejoin:miter;stroke-opacity:1" /><path
         inkscape:connector-curvature="0"
         id="path5768"
         d="m 88.917231,93.023236 0.935442,-0.801809 1.904297,2.221677 0.05011,2.171565 14.03165,-0.05011 0.0668,-2.088044 1.83748,-1.937702 0.91038,0.793456 -1.52009,1.553504 0.0167,7.558717 h -1.23613 l -0.0333,-2.39371 -14.103237,0.0472 -0.02037,2.37151 -1.202714,-0.0167 0.0084,-7.650588 z"
         style="fill:#000000;fill-opacity:1;stroke:#000000;stroke-width:0.264583px;stroke-linecap:butt;stroke-linejoin:miter;stroke-opacity:1" /><path
         style="fill:#000000;fill-opacity:1;stroke:#000000;stroke-width:0.264583px;stroke-linecap:butt;stroke-linejoin:miter;stroke-opacity:1"
         d="m 116.87313,94.409695 -2.37204,-2.037929 -0.73499,0.868627 2.43885,2.171565 0.7684,-0.868627 z"
         id="path5770"
         inkscape:connector-curvature="0" /></g></g></svg>
